<svg version="1.1" id="Layer_1" xmlns="http://www.w3.org/2000/svg" xmlns:xlink="http://www.w3.org/1999/xlink" x="0px" y="0px"
	 width="100%" viewBox="0 0 144 144" enable-background="new 0 0 144 144" xml:space="preserve">
<path fill="#A63C47" opacity="1.000000" stroke="none" 
	d="
M145.000000,51.000000 
	C145.000000,67.687561 145.000000,84.375122 144.536896,101.531342 
	C141.779480,101.998085 139.473801,101.850136 137.193405,102.027283 
	C133.445160,102.318466 131.585617,100.864105 131.979492,96.533279 
	C132.002548,93.972214 132.001999,91.861794 132.428101,89.800354 
	C139.258331,90.100502 139.621704,89.675453 138.338638,83.131912 
	C136.287476,83.131912 134.185211,83.131912 131.660095,83.090881 
	C129.115097,82.693993 126.992950,82.338135 124.896576,81.563080 
	C124.992508,79.747826 125.062675,78.351776 125.554077,76.964218 
	C128.767181,76.956375 131.749603,77.491768 132.309341,73.297783 
	C132.424179,72.437309 134.044891,71.284019 135.095490,71.133987 
	C138.361191,70.667618 138.933975,68.644272 139.041214,65.869926 
	C139.231674,60.942516 139.635437,56.023350 140.370361,51.078239 
	C142.193848,51.037167 143.596924,51.018585 145.000000,51.000000 
z"/>
<path fill="#5B353E" opacity="1.000000" stroke="none" 
	d="
M1.000000,128.000000 
	C1.000000,121.645599 1.000000,115.291206 1.375921,108.446457 
	C3.465034,107.609734 5.178227,107.263351 7.137248,107.205894 
	C10.848420,109.276138 15.960707,109.122139 15.848945,115.209900 
	C14.591272,121.353371 14.869287,121.699379 20.949287,122.246719 
	C21.388790,122.732414 21.698692,122.957573 22.006912,123.628899 
	C22.013155,127.380539 22.021080,130.686005 21.633667,134.011612 
	C19.178236,134.355698 17.118143,134.679657 15.038486,134.997726 
	C15.018922,134.991837 14.978392,134.986710 14.837877,134.810059 
	C14.496375,134.407852 14.272711,134.207626 13.588404,134.025482 
	C11.107837,133.997360 9.065239,133.976486 7.012498,133.545837 
	C7.545348,128.451233 4.749899,127.667900 1.000000,128.000000 
z"/>
<path fill="#2E1E08" opacity="1.000000" stroke="none" 
	d="
M130.000000,1.000000 
	C133.030594,1.000000 136.061188,1.000000 139.546631,1.468657 
	C139.997208,14.300570 139.992950,26.663828 139.736633,38.912201 
	C138.991074,38.556465 138.497574,38.315617 137.591034,38.042637 
	C133.444244,38.273106 131.771118,36.594265 132.011703,32.807346 
	C132.155869,30.538460 131.973679,28.248838 131.848419,25.764719 
	C131.579956,25.305397 131.339111,25.140892 130.788300,25.023628 
	C130.375076,24.951897 130.209671,24.923923 130.033447,24.433949 
	C130.015106,16.314634 130.007553,8.657317 130.000000,1.000000 
z"/>
<path fill="#2E1E08" opacity="1.000000" stroke="none" 
	d="
M12.000000,1.000000 
	C15.030593,1.000000 18.061186,1.000000 21.546431,1.468344 
	C22.025394,7.988543 22.049707,14.040397 22.042597,20.534870 
	C21.983110,22.957104 22.313299,25.033508 21.812923,26.885513 
	C21.417091,28.350580 20.098314,30.564215 19.021124,30.666086 
	C15.320502,31.016052 14.828262,33.081688 14.954021,36.054832 
	C15.065487,38.690018 14.975794,41.333714 14.609576,43.971722 
	C13.514018,43.948479 12.783785,43.927166 12.037911,43.443584 
	C11.993835,36.663292 11.965401,30.345261 11.948088,23.557018 
	C11.972807,15.724537 11.986403,8.362268 12.000000,1.000000 
z"/>
<path fill="#422F08" opacity="1.000000" stroke="none" 
	d="
M22.074020,20.092251 
	C22.049707,14.040397 22.025394,7.988543 22.000542,1.468344 
	C28.354399,1.000000 34.708797,1.000000 41.531631,1.373999 
	C42.001030,2.495714 42.001991,3.243430 42.128746,4.268296 
	C42.868134,5.042009 43.481731,5.538573 44.082794,6.271603 
	C44.070267,6.508069 44.150730,6.974786 44.105576,7.384695 
	C43.999352,9.165931 43.938278,10.537256 43.420898,11.929991 
	C39.842503,11.978726 36.708565,11.856700 33.603836,12.102939 
	C32.260788,12.209456 29.873268,13.015936 29.841112,13.606821 
	C29.561783,18.739681 25.526365,19.004211 22.074020,20.092251 
z"/>
<path fill="#5A353E" opacity="1.000000" stroke="none" 
	d="
M145.000000,115.000000 
	C145.000000,121.354393 145.000000,127.708794 144.531601,134.531937 
	C137.709351,135.000824 131.355499,135.000961 124.809486,134.787506 
	C124.375702,134.056259 124.134071,133.538605 123.917732,132.625305 
	C123.984917,131.174591 124.026817,130.119522 124.158531,128.923859 
	C124.161232,128.484192 124.074112,128.185089 124.150375,127.707863 
	C124.545341,127.304291 124.794662,127.100555 125.395172,127.074310 
	C131.049789,128.286392 138.622894,121.904030 138.955811,115.808701 
	C138.993698,115.319313 139.008347,115.123520 139.449585,114.940865 
	C141.584122,114.969330 143.292053,114.984665 145.000000,115.000000 
z"/>
<path fill="#422F08" opacity="1.000000" stroke="none" 
	d="
M11.517044,1.000000 
	C11.986403,8.362268 11.972807,15.724537 11.496855,23.549784 
	C7.689666,24.008509 4.344833,24.004255 1.000000,24.000000 
	C1.000000,16.439960 1.000000,8.879921 1.000000,1.000000 
	C4.337899,1.000000 7.685993,1.000000 11.517044,1.000000 
z"/>
<path fill="#423008" opacity="1.000000" stroke="none" 
	d="
M129.531723,1.000000 
	C130.007553,8.657317 130.015106,16.314634 129.623444,24.465290 
	C127.857651,24.941961 126.491074,24.925293 125.084579,24.513411 
	C125.203415,21.193489 124.592812,18.860451 120.985199,18.378822 
	C120.992409,16.595882 120.998474,15.269056 120.999352,13.942227 
	C121.005920,3.996583 121.005592,3.996583 110.996811,3.627832 
	C110.998444,2.501619 110.999222,1.750810 111.000000,1.000000 
	C117.021149,1.000000 123.042297,1.000000 129.531723,1.000000 
z"/>
<path fill="#78341F" opacity="1.000000" stroke="none" 
	d="
M131.955872,96.983917 
	C131.585617,100.864105 133.445160,102.318466 137.193405,102.027283 
	C139.473801,101.850136 141.779480,101.998085 144.536896,102.000000 
	C145.000000,104.370560 145.000000,106.741112 144.582474,109.555878 
	C142.772903,110.006607 141.380875,110.013123 139.998932,109.989716 
	C140.009048,109.959793 140.006317,109.896683 139.678467,109.711731 
	C134.194626,107.620758 132.055771,110.450638 130.542252,114.911865 
	C128.819153,114.959785 127.493126,114.981209 125.983383,114.651680 
	C125.485588,112.210419 125.171501,110.120102 124.896210,107.571106 
	C124.951813,103.747238 124.968613,100.382050 125.422325,97.018005 
	C127.891449,97.007401 129.923660,96.995659 131.955872,96.983917 
z"/>
<path fill="#4B3708" opacity="1.000000" stroke="none" 
	d="
M1.000000,24.468403 
	C4.344833,24.004255 7.689666,24.008509 11.485732,24.019997 
	C11.965401,30.345261 11.993835,36.663292 11.620941,43.471085 
	C9.834154,43.980019 8.448697,43.999187 6.641864,44.014778 
	C4.816116,44.008003 3.411746,44.004814 1.755533,44.001060 
	C1.335792,44.000324 1.167896,44.000160 1.000000,44.000000 
	C1.000000,37.645603 1.000000,31.291204 1.000000,24.468403 
z"/>
<path fill="#422F08" opacity="1.000000" stroke="none" 
	d="
M139.988678,39.027084 
	C139.992950,26.663828 139.997208,14.300570 140.000732,1.468657 
	C141.651321,1.000000 143.302643,1.000000 145.000000,1.000000 
	C145.000000,15.020866 145.000000,29.041775 144.605927,43.531189 
	C142.488510,43.676956 140.765167,43.354221 139.255035,42.752735 
	C139.641724,41.325016 139.815201,40.176048 139.988678,39.027084 
z"/>
<path fill="#623E46" opacity="1.000000" stroke="none" 
	d="
M125.001648,135.001083 
	C131.355499,135.000961 137.709351,135.000824 144.531601,135.000336 
	C145.000000,138.283829 145.000000,141.567673 145.000000,145.000000 
	C138.646576,145.000000 132.292328,145.000000 125.469505,144.652130 
	C124.977478,143.841080 124.954033,143.377884 124.944725,142.479401 
	C124.973122,139.696426 124.987389,137.348755 125.001648,135.001083 
z"/>
<path fill="#553235" opacity="1.000000" stroke="none" 
	d="
M58.999996,145.000000 
	C55.307091,145.000000 51.614182,145.000000 47.642906,144.707977 
	C48.566589,141.335892 49.768635,138.255814 51.424316,135.118011 
	C56.548882,134.666977 61.219810,134.273682 66.328575,133.895432 
	C68.517586,133.969131 70.268768,134.027771 72.012192,134.511169 
	C72.009056,136.923080 72.013664,138.910248 71.598877,140.948151 
	C69.492226,141.053131 67.804962,141.107361 65.818672,141.107880 
	C65.320847,141.015442 65.122040,140.976715 64.645996,140.774139 
	C62.948189,140.709839 61.527630,140.809402 59.885780,141.193054 
	C59.442997,142.651428 59.221497,143.825714 58.999996,145.000000 
z"/>
<path fill="#78341F" opacity="1.000000" stroke="none" 
	d="
M139.041824,43.031487 
	C140.765167,43.354221 142.488510,43.676956 144.605927,43.999847 
	C145.000000,46.041668 145.000000,48.083332 145.000000,50.562500 
	C143.596924,51.018585 142.193848,51.037167 140.160461,50.935238 
	C139.318878,50.553333 139.107590,50.291939 138.918396,49.623283 
	C139.399429,44.580231 136.729202,43.659710 132.655853,43.826950 
	C131.658096,41.800896 130.889099,38.574326 130.139236,38.578766 
	C124.395149,38.612782 124.941780,34.716618 124.901726,30.634289 
	C124.998222,28.432690 125.061356,26.670658 125.124496,24.908625 
	C126.491074,24.925293 127.857651,24.941961 129.634247,24.927288 
	C130.209671,24.923923 130.375076,24.951897 130.928558,25.183405 
	C131.511185,25.594294 131.718369,25.788160 131.938171,25.968538 
	C131.973679,28.248838 132.155869,30.538460 132.011703,32.807346 
	C131.771118,36.594265 133.444244,38.273106 137.592896,38.413792 
	C138.352493,40.221878 138.697159,41.626682 139.041824,43.031487 
z"/>
<path fill="#392532" opacity="1.000000" stroke="none" 
	d="
M50.970680,135.175735 
	C49.768635,138.255814 48.566589,141.335892 47.182274,144.707977 
	C43.969406,145.000000 40.938812,145.000000 37.452724,144.611938 
	C36.965015,143.190231 36.932800,142.156570 36.915741,140.684540 
	C36.960533,138.489731 36.990170,136.733322 37.415428,134.985870 
	C39.830883,134.701523 41.850712,134.408234 44.129547,134.430573 
	C46.582596,134.889374 48.776638,135.032547 50.970680,135.175735 
z"/>
<path fill="#7B502C" opacity="1.000000" stroke="none" 
	d="
M80.000000,145.000000 
	C79.250000,145.000000 78.500000,145.000000 77.216156,144.722260 
	C75.449112,143.288071 74.215919,142.131592 72.985474,140.542236 
	C72.979057,138.096909 72.969887,136.084457 73.008842,133.781357 
	C73.087105,133.296600 73.117256,133.102509 73.511818,133.085724 
	C78.583969,133.533371 83.291702,133.803696 87.997246,134.494629 
	C88.000549,136.608429 88.006042,138.301636 88.010262,140.225449 
	C88.008987,140.456039 88.041405,140.916077 87.639771,140.948883 
	C85.201729,141.345200 83.165329,141.708710 80.903908,142.120193 
	C80.452591,143.112106 80.226295,144.056046 80.000000,145.000000 
z"/>
<path fill="#392632" opacity="1.000000" stroke="none" 
	d="
M106.000000,145.000000 
	C105.555664,145.000000 105.111328,145.000000 104.315460,144.687469 
	C103.717094,143.592743 103.470253,142.810547 103.131561,142.035156 
	C103.039703,142.041931 102.856071,142.027359 102.908936,141.790710 
	C102.961792,141.554062 102.956779,141.069031 102.967354,140.665588 
	C103.308441,138.229172 103.638947,136.196198 104.431763,134.136902 
	C108.605309,134.062057 112.316551,134.013519 116.260185,133.976089 
	C116.492577,133.987213 116.958427,133.987213 116.990372,133.954361 
	C117.022308,133.921509 117.102562,133.877304 117.083771,134.230591 
	C117.044434,135.055099 117.023895,135.526337 116.994354,136.397812 
	C117.155800,141.291428 113.977264,141.012634 110.682220,141.126160 
	C108.916595,142.497711 107.458298,143.748856 106.000000,145.000000 
z"/>
<path fill="#998346" opacity="1.000000" stroke="none" 
	d="
M1.000000,71.000000 
	C1.000000,66.310745 1.000000,61.621487 1.411240,56.466240 
	C3.190416,55.947636 4.558352,55.895020 6.198133,55.981003 
	C6.981194,56.452209 7.492409,56.784813 7.828017,57.484924 
	C7.389873,62.221264 7.127335,66.590096 6.446465,70.972542 
	C4.352088,70.990768 2.676044,70.995384 1.000000,71.000000 
z"/>
<path fill="#41292F" opacity="1.000000" stroke="none" 
	d="
M110.989555,141.005753 
	C113.977264,141.012634 117.155800,141.291428 117.420448,136.398529 
	C123.657722,134.781052 123.939362,139.210861 124.930588,142.914703 
	C124.954033,143.377884 124.977478,143.841080 125.000458,144.652130 
	C120.643097,145.000000 116.286201,145.000000 111.464935,144.600464 
	C110.996895,143.135864 110.993225,142.070816 110.989555,141.005753 
z"/>
<path fill="#514728" opacity="1.000000" stroke="none" 
	d="
M7.022641,133.955612 
	C9.065239,133.976486 11.107837,133.997360 13.736269,134.194534 
	C14.527810,134.590042 14.746572,134.795334 14.978392,134.986710 
	C14.978392,134.986710 15.018922,134.991837 15.018153,135.451141 
	C15.011589,138.940292 15.005795,141.970154 15.000000,145.000000 
	C12.629442,145.000000 10.258885,145.000000 7.445150,144.620148 
	C6.984134,143.480881 6.966295,142.721451 6.964042,141.721405 
	C6.979627,141.480789 6.990674,140.998688 6.995534,140.578293 
	C6.986088,138.477127 6.971782,136.796356 6.974008,134.825607 
	C7.001240,134.342285 7.011940,134.148956 7.022641,133.955612 
z"/>
<path fill="#382C32" opacity="1.000000" stroke="none" 
	d="
M15.444163,145.000000 
	C15.005795,141.970154 15.011589,138.940292 15.037717,135.457031 
	C17.118143,134.679657 19.178236,134.355698 21.620071,134.021973 
	C22.001814,134.012207 21.972427,134.027298 21.983105,134.449432 
	C22.343618,137.262009 22.693455,139.652435 23.025768,142.412216 
	C23.005497,143.521042 23.002748,144.260529 23.000000,145.000000 
	C20.629442,145.000000 18.258884,145.000000 15.444163,145.000000 
z"/>
<path fill="#7B4F2C" opacity="1.000000" stroke="none" 
	d="
M1.000000,71.460632 
	C2.676044,70.995384 4.352088,70.990768 6.481091,71.375000 
	C7.266996,73.822823 7.599942,75.881798 7.711112,78.236664 
	C7.281721,80.005913 7.074107,81.479271 6.448115,82.969086 
	C4.353158,82.990364 2.676579,82.995186 1.000000,83.000000 
	C1.000000,79.307091 1.000000,75.614182 1.000000,71.460632 
z"/>
<path fill="#4B3707" opacity="1.000000" stroke="none" 
	d="
M1.000000,83.460640 
	C2.676579,82.995186 4.353158,82.990364 6.480102,83.419250 
	C7.260061,88.673935 7.370312,93.428482 2.751541,96.707336 
	C2.001080,96.058739 1.500540,95.529373 0.999999,95.000000 
	C1.000000,91.307091 1.000000,87.614182 1.000000,83.460640 
z"/>
<path fill="#8A5F44" opacity="1.000000" stroke="none" 
	d="
M0.999999,95.462616 
	C1.500540,95.529373 2.001080,96.058739 3.145506,96.780426 
	C9.578695,98.804108 6.039258,103.545502 6.891420,106.916977 
	C5.178227,107.263351 3.465034,107.609734 1.375921,107.978058 
	C1.000000,103.975075 1.000000,99.950157 0.999999,95.462616 
z"/>
<path fill="#433008" opacity="1.000000" stroke="none" 
	d="
M44.095325,6.035137 
	C43.481731,5.538573 42.868134,5.042009 42.575836,4.270784 
	C45.978638,3.140880 50.342411,6.181427 52.000000,1.000000 
	C55.030594,1.000000 58.061188,1.000000 61.545769,1.412598 
	C61.989960,2.925625 61.980156,4.026054 61.517563,5.089803 
	C55.408287,5.380461 49.751808,5.707799 44.095325,6.035137 
z"/>
<path fill="#433008" opacity="1.000000" stroke="none" 
	d="
M91.000000,1.000000 
	C94.030594,1.000000 97.061188,1.000000 100.610703,1.346995 
	C102.418900,2.468228 103.708168,3.242466 104.911774,4.320904 
	C104.184746,5.434165 103.543373,6.243226 102.537399,6.865005 
	C98.451569,6.396407 94.730331,6.115089 91.007416,5.431048 
	C91.003822,3.685550 91.001915,2.342775 91.000000,1.000000 
z"/>
<path fill="#412F08" opacity="1.000000" stroke="none" 
	d="
M2.007376,44.001625 
	C3.411746,44.004814 4.816116,44.008003 6.624827,44.463669 
	C6.708753,48.305740 6.388337,51.695328 5.765843,54.886925 
	C4.290168,54.443180 3.116571,54.197430 1.797691,53.782104 
	C1.446463,53.396076 1.228993,53.191902 1.000000,53.000000 
	C1.000000,51.285839 1.000000,49.571674 1.174149,47.159340 
	C1.567991,45.641319 1.787684,44.821472 2.007376,44.001625 
z"/>
<path fill="#CF5B44" opacity="1.000000" stroke="none" 
	d="
M81.128929,142.072235 
	C83.165329,141.708710 85.201729,141.345200 88.070915,140.981171 
	C90.935120,141.028046 92.966530,141.075439 94.999252,141.510559 
	C95.000374,142.932175 95.000191,143.966080 95.000000,145.000000 
	C90.643097,145.000000 86.286201,145.000000 81.466888,144.633591 
	C81.045959,143.535538 81.087440,142.803879 81.128929,142.072235 
z"/>
<path fill="#4A3608" opacity="1.000000" stroke="none" 
	d="
M90.545891,1.000000 
	C91.001915,2.342775 91.003822,3.685550 90.569931,5.478825 
	C87.092171,6.285292 84.050224,6.641258 80.981201,6.794440 
	C80.954132,6.591655 80.918106,6.184077 80.941216,5.752464 
	C80.976212,3.880567 80.988106,2.440284 81.000000,1.000000 
	C84.030594,1.000000 87.061188,1.000000 90.545891,1.000000 
z"/>
<path fill="#2E1E08" opacity="1.000000" stroke="none" 
	d="
M80.545891,1.000000 
	C80.988106,2.440284 80.976212,3.880567 80.728668,5.719184 
	C80.493004,6.117517 80.064674,6.164742 79.614067,6.097475 
	C76.435654,5.967610 73.707848,5.905013 70.980652,5.439985 
	C70.987511,3.691703 70.993752,2.345852 71.000000,1.000000 
	C74.030594,1.000000 77.061188,1.000000 80.545891,1.000000 
z"/>
<path fill="#4A3708" opacity="1.000000" stroke="none" 
	d="
M70.550941,1.000000 
	C70.993752,2.345852 70.987511,3.691703 70.982880,5.522293 
	C70.984482,6.007030 70.982025,6.171683 70.552177,6.112476 
	C67.405006,5.744340 64.687675,5.435412 61.970352,5.126483 
	C61.980156,4.026054 61.989960,2.925625 61.999878,1.412598 
	C64.700630,1.000000 67.401253,1.000000 70.550941,1.000000 
z"/>
<path fill="#95613B" opacity="1.000000" stroke="none" 
	d="
M6.957476,135.115585 
	C6.971782,136.796356 6.986088,138.477127 6.568217,140.584351 
	C4.424026,141.007217 2.712013,141.003616 1.000000,141.000000 
	C1.000000,138.958328 1.000000,136.916672 1.389084,134.439240 
	C3.504604,134.374191 5.231040,134.744888 6.957476,135.115585 
z"/>
<path fill="#9A8347" opacity="1.000000" stroke="none" 
	d="
M72.982719,140.975128 
	C74.215919,142.131592 75.449112,143.288071 76.841156,144.722260 
	C73.638710,145.000000 70.277428,145.000000 66.457123,144.615234 
	C66.037971,143.207504 66.077835,142.184555 66.117699,141.161591 
	C67.804962,141.107361 69.492226,141.053131 71.838821,140.981995 
	C72.498161,140.965118 72.982719,140.975128 72.982719,140.975128 
z"/>
<path fill="#504726" opacity="1.000000" stroke="none" 
	d="
M6.974008,134.825607 
	C5.231040,134.744888 3.504604,134.374191 1.389084,134.001740 
	C1.000000,132.285645 1.000000,130.571289 1.000000,128.428467 
	C4.749899,127.667900 7.545348,128.451233 7.012498,133.545837 
	C7.011940,134.148956 7.001240,134.342285 6.974008,134.825607 
z"/>
<path fill="#B98847" opacity="1.000000" stroke="none" 
	d="
M36.900581,141.122925 
	C36.932800,142.156570 36.965015,143.190231 36.998615,144.611938 
	C34.629444,145.000000 32.258884,145.000000 29.451366,144.610138 
	C29.033800,143.180862 29.053196,142.141449 29.506046,141.060196 
	C32.259861,141.053192 34.580223,141.088058 36.900581,141.122925 
z"/>
<path fill="#342308" opacity="1.000000" stroke="none" 
	d="
M51.545891,1.000000 
	C50.342411,6.181427 45.978638,3.140880 42.450043,3.993635 
	C42.001991,3.243430 42.001030,2.495714 42.000034,1.373999 
	C45.030594,1.000000 48.061188,1.000000 51.545891,1.000000 
z"/>
<path fill="#342308" opacity="1.000000" stroke="none" 
	d="
M104.997429,4.016705 
	C103.708168,3.242466 102.418900,2.468228 101.064819,1.346995 
	C104.030594,1.000000 107.061188,1.000000 110.545883,1.000000 
	C110.999222,1.750810 110.998444,2.501619 110.998932,3.626191 
	C111.000206,3.999954 111.003052,3.996283 110.627899,3.998205 
	C109.502800,4.005861 108.752846,4.011596 107.627274,4.014408 
	C106.500244,4.013226 105.748833,4.014966 104.997429,4.016705 
z"/>
<path fill="#7C4F2B" opacity="1.000000" stroke="none" 
	d="
M65.818672,141.107880 
	C66.077835,142.184555 66.037971,143.207504 65.999054,144.615234 
	C63.958332,145.000000 61.916668,145.000000 59.437496,145.000000 
	C59.221497,143.825714 59.442997,142.651428 60.285114,141.211395 
	C62.244900,140.943100 63.584064,140.940536 64.923233,140.937988 
	C65.122040,140.976715 65.320847,141.015442 65.818672,141.107880 
z"/>
<path fill="#A53B47" opacity="1.000000" stroke="none" 
	d="
M95.437439,145.000000 
	C95.000191,143.966080 95.000374,142.932175 94.992355,141.417145 
	C94.984146,140.936020 94.997971,140.750488 95.279892,140.853821 
	C95.752144,141.019165 95.942467,141.081207 96.459900,141.310135 
	C98.810036,141.660477 100.833054,141.843918 102.856071,142.027359 
	C102.856071,142.027359 103.039703,142.041931 103.065659,142.369461 
	C103.017830,143.144455 102.944046,143.591919 102.713394,144.188538 
	C102.352730,144.543106 102.167229,144.763870 102.000000,145.000000 
	C99.958290,145.000000 97.916588,145.000000 95.437439,145.000000 
z"/>
<path fill="#392632" opacity="1.000000" stroke="none" 
	d="
M139.988831,110.019638 
	C141.380875,110.013123 142.772903,110.006607 144.582474,110.000046 
	C145.000000,111.066521 145.000000,112.133034 144.608887,113.592964 
	C141.443527,114.118942 139.912140,112.926468 139.988831,110.019638 
z"/>
<path fill="#925E3A" opacity="1.000000" stroke="none" 
	d="
M29.072592,141.102051 
	C29.053196,142.141449 29.033800,143.180862 29.007202,144.610138 
	C27.285837,145.000000 25.571672,145.000000 23.428755,145.000000 
	C23.002748,144.260529 23.005497,143.521042 23.412872,142.395050 
	C25.569197,141.706375 27.320894,141.404221 29.072592,141.102051 
z"/>
<path fill="#382D32" opacity="1.000000" stroke="none" 
	d="
M6.948456,141.962021 
	C6.966295,142.721451 6.984134,143.480881 7.000986,144.620148 
	C5.333333,145.000000 3.648643,145.131989 2.012488,144.908554 
	C1.595883,144.851669 1.333332,143.666672 1.425833,142.498428 
	C3.550596,141.985245 5.249526,141.973633 6.948456,141.962021 
z"/>
<path fill="#372329" opacity="1.000000" stroke="none" 
	d="
M110.682220,141.126160 
	C110.993225,142.070816 110.996895,143.135864 111.000282,144.600464 
	C109.611107,145.000000 108.222221,145.000000 106.416664,145.000000 
	C107.458298,143.748856 108.916595,142.497711 110.682220,141.126160 
z"/>
<path fill="#2A202F" opacity="1.000000" stroke="none" 
	d="
M139.998932,109.989716 
	C139.912140,112.926468 141.443527,114.118942 144.608887,113.993187 
	C145.000000,114.000000 145.000000,114.500000 145.000000,114.750000 
	C143.292053,114.984665 141.584122,114.969330 139.446991,114.566994 
	C139.347321,112.752220 139.676819,111.324448 140.006317,109.896683 
	C140.006317,109.896683 140.009048,109.959793 139.998932,109.989716 
z"/>
<path fill="#2C1C08" opacity="1.000000" stroke="none" 
	d="
M1.942973,53.951679 
	C3.116571,54.197430 4.290168,54.443180 5.726594,55.075409 
	C5.989422,55.461891 5.926288,55.842403 5.926288,55.842403 
	C4.558352,55.895020 3.190416,55.947636 1.411240,56.000126 
	C1.000000,55.555553 1.000000,55.111111 1.235794,54.322247 
	C1.471589,53.977829 1.942973,53.951679 1.942973,53.951679 
z"/>
<path fill="#1D2231" opacity="1.000000" stroke="none" 
	d="
M6.964042,141.721405 
	C5.249526,141.973633 3.550596,141.985245 1.425833,141.998428 
	C1.000000,142.000000 1.000000,141.500000 1.000000,141.250000 
	C2.712013,141.003616 4.424026,141.007217 6.563356,141.004761 
	C6.990674,140.998688 6.979627,141.480789 6.964042,141.721405 
z"/>
<path fill="#642A12" opacity="1.000000" stroke="none" 
	d="
M80.903908,142.120193 
	C81.087440,142.803879 81.045959,143.535538 81.002243,144.633591 
	C81.000000,145.000000 80.500000,145.000000 80.250000,145.000000 
	C80.226295,144.056046 80.452591,143.112106 80.903908,142.120193 
z"/>
<path fill="#4D3908" opacity="1.000000" stroke="none" 
	d="
M1.755533,44.001060 
	C1.787684,44.821472 1.567991,45.641319 1.174149,46.730583 
	C1.000000,46.250000 1.000000,45.500000 1.000000,44.375000 
	C1.167896,44.000160 1.335792,44.000324 1.755533,44.001060 
z"/>
<path fill="#002E2D" opacity="1.000000" stroke="none" 
	d="
M102.870262,144.039383 
	C102.944046,143.591919 103.017830,143.144455 103.157516,142.362671 
	C103.470253,142.810547 103.717094,143.592743 103.981964,144.687469 
	C104.000000,145.000000 103.500000,145.000000 103.233292,144.757721 
	C102.966583,144.515442 102.870262,144.039383 102.870262,144.039383 
z"/>
<path fill="#BD3F4D" opacity="1.000000" stroke="none" 
	d="
M102.713394,144.188538 
	C102.870262,144.039383 102.966583,144.515442 102.983292,144.757721 
	C103.000000,145.000000 102.500000,145.000000 102.250000,145.000000 
	C102.167229,144.763870 102.352730,144.543106 102.713394,144.188538 
z"/>
<path fill="#4D3908" opacity="1.000000" stroke="none" 
	d="
M1.797691,53.782104 
	C1.942973,53.951679 1.471589,53.977829 1.235794,53.988914 
	C1.000000,54.000000 1.000000,53.500000 1.000000,53.250000 
	C1.228993,53.191902 1.446463,53.396076 1.797691,53.782104 
z"/>
<path fill="#CF5B44" opacity="1.000000" stroke="none" 
	d="
M124.868370,31.073853 
	C124.941780,34.716618 124.395149,38.612782 130.139236,38.578766 
	C130.889099,38.574326 131.658096,41.800896 132.527847,44.168961 
	C130.702209,51.366741 135.725235,49.589134 138.896286,50.030548 
	C139.107590,50.291939 139.318878,50.553333 139.740067,50.957726 
	C139.635437,56.023350 139.231674,60.942516 139.041214,65.869926 
	C138.933975,68.644272 138.361191,70.667618 135.095490,71.133987 
	C134.044891,71.284019 132.424179,72.437309 132.309341,73.297783 
	C131.749603,77.491768 128.767181,76.956375 125.498184,76.544327 
	C124.824394,70.095955 124.824394,70.095955 117.051682,69.483276 
	C117.016869,66.894661 116.815010,64.742142 117.039474,62.635044 
	C117.541740,57.920223 115.462608,56.295555 110.772400,57.109787 
	C110.536095,57.045288 110.056686,56.944469 110.006027,56.705456 
	C109.955360,56.466442 109.824837,55.995544 109.883240,55.541786 
	C109.961220,53.279121 109.825775,51.452473 110.030418,49.664757 
	C110.569008,44.959984 108.501587,43.280697 103.769119,44.023705 
	C103.291069,43.572289 103.054222,43.275459 102.872673,42.580151 
	C103.168930,36.454285 99.036171,38.281834 95.777969,38.028137 
	C95.297668,37.579826 95.058601,37.285400 94.877586,36.583336 
	C95.701065,31.445549 92.991791,30.605209 88.975105,30.644732 
	C88.532532,28.347303 88.114769,26.429050 88.052544,24.499331 
	C87.861511,18.575291 86.854561,17.911022 80.632812,20.030354 
	C80.426941,20.050875 80.018021,20.120527 79.611740,20.094437 
	C76.443695,19.901693 73.801964,19.901516 73.720978,23.947109 
	C72.978882,24.414276 72.507484,24.762293 71.615776,25.078480 
	C69.793610,24.986904 68.391754,24.927155 66.990280,24.459129 
	C67.448189,19.477451 65.259338,17.726856 60.828892,17.967075 
	C57.519623,18.146507 54.190891,17.966900 50.892761,17.531590 
	C50.961399,15.729335 51.008110,14.342660 51.209518,12.826241 
	C51.564342,12.516383 51.749020,12.321620 52.391617,12.091538 
	C68.937210,12.015790 85.009445,11.960710 101.298363,11.897524 
	C101.515053,11.889420 101.945747,11.838530 101.963470,11.904680 
	C101.981201,11.970830 102.017433,12.102920 102.191650,12.274603 
	C102.605217,12.671617 102.854950,12.884778 103.101219,13.487514 
	C102.702538,20.237175 107.345360,18.759127 111.270630,19.123613 
	C113.451759,19.564423 115.292534,19.809404 117.110863,20.501740 
	C116.897133,30.820902 116.897133,30.820902 124.868370,31.073853 
z"/>
<path fill="#D19686" opacity="1.000000" stroke="none" 
	d="
M131.979492,96.533279 
	C129.923660,96.995659 127.891449,97.007401 125.460655,97.021088 
	C125.062073,97.023033 125.069138,96.946358 125.049683,96.516724 
	C124.914787,89.110985 124.914787,89.110985 117.072754,88.500145 
	C117.031952,86.067841 117.043137,84.061691 117.407471,82.172409 
	C120.130684,82.186935 122.500748,82.084610 124.870811,81.982277 
	C126.992950,82.338135 129.115097,82.693993 131.642426,83.505844 
	C132.032227,85.891678 132.016846,87.821526 132.001465,89.751373 
	C132.001999,91.861794 132.002548,93.972214 131.979492,96.533279 
z"/>
<path fill="#392632" opacity="1.000000" stroke="none" 
	d="
M124.896576,81.563080 
	C122.500748,82.084610 120.130684,82.186935 117.393997,81.708366 
	C117.044281,77.398308 117.061195,73.669151 117.078102,69.939987 
	C124.824394,70.095955 124.824394,70.095955 125.076950,76.535843 
	C125.062675,78.351776 124.992508,79.747826 124.896576,81.563080 
z"/>
<path fill="#F8D2B3" opacity="1.000000" stroke="none" 
	d="
M132.428101,89.800354 
	C132.016846,87.821526 132.032227,85.891678 132.065277,83.546875 
	C134.185211,83.131912 136.287476,83.131912 138.338638,83.131912 
	C139.621704,89.675453 139.258331,90.100502 132.428101,89.800354 
z"/>
<path fill="#392632" opacity="1.000000" stroke="none" 
	d="
M7.137247,107.205887 
	C6.039258,103.545502 9.578695,98.804108 3.395426,96.899643 
	C7.370312,93.428482 7.260061,88.673935 6.898480,83.402794 
	C7.074107,81.479271 7.281721,80.005913 8.144438,78.259346 
	C10.811406,78.029564 12.823272,78.072983 14.879128,78.515930 
	C14.970613,80.262337 15.018106,81.609215 15.057941,83.213783 
	C15.052191,83.643333 15.054098,83.815193 15.052010,84.391029 
	C14.738944,89.480347 18.124502,88.946579 21.183968,89.416794 
	C21.579172,91.828194 21.849316,93.872925 22.084862,96.350090 
	C22.015648,103.509583 22.263998,103.731651 28.144104,102.424225 
	C28.532825,104.512863 28.755939,106.260757 28.609779,108.151352 
	C26.239546,108.687485 24.238586,109.080925 22.488394,109.425056 
	C21.981617,111.116539 21.539310,112.592827 20.746330,114.179359 
	C18.947166,114.483215 17.498676,114.676834 16.050186,114.870445 
	C15.960707,109.122139 10.848420,109.276138 7.137247,107.205887 
z"/>
<path fill="#D29686" opacity="1.000000" stroke="none" 
	d="
M21.097008,114.069122 
	C21.539310,112.592827 21.981617,111.116539 22.488394,109.425056 
	C24.238586,109.080925 26.239546,108.687485 28.616867,108.402557 
	C29.000040,108.678444 29.006855,108.845833 29.010485,109.473404 
	C29.376516,114.274399 29.745735,118.615204 29.808010,122.977242 
	C29.296440,123.012680 29.091816,123.026886 28.573490,122.909721 
	C26.176056,122.913139 24.092323,123.047935 22.008591,123.182724 
	C21.698692,122.957573 21.388790,122.732414 21.130310,121.907288 
	C21.153490,118.894585 21.125248,116.481850 21.097008,114.069122 
z"/>
<path fill="#482F5B" opacity="1.000000" stroke="none" 
	d="
M22.006910,123.628906 
	C24.092323,123.047935 26.176056,122.913139 28.612316,123.331192 
	C29.011843,125.582092 29.058842,127.280151 29.069981,129.371719 
	C28.856913,134.792404 25.068758,133.836716 21.972427,134.027298 
	C21.972427,134.027298 22.001814,134.012207 22.015408,134.001831 
	C22.021080,130.686005 22.013155,127.380539 22.006910,123.628906 
z"/>
<path fill="#492F5D" opacity="1.000000" stroke="none" 
	d="
M20.746332,114.179359 
	C21.125248,116.481850 21.153490,118.894585 21.000708,121.646744 
	C14.869287,121.699379 14.591272,121.353371 15.848945,115.209900 
	C17.498676,114.676834 18.947166,114.483215 20.746332,114.179359 
z"/>
<path fill="#504726" opacity="1.000000" stroke="none" 
	d="
M14.837877,134.810059 
	C14.746572,134.795334 14.527810,134.590042 14.174236,134.201797 
	C14.272711,134.207626 14.496375,134.407852 14.837877,134.810059 
z"/>
<path fill="#7A351F" opacity="1.000000" stroke="none" 
	d="
M139.255035,42.752735 
	C138.697159,41.626682 138.352493,40.221878 138.005951,38.445919 
	C138.497574,38.315617 138.991074,38.556465 139.736618,38.912201 
	C139.815201,40.176048 139.641724,41.325016 139.255035,42.752735 
z"/>
<path fill="#79341F" opacity="1.000000" stroke="none" 
	d="
M131.848419,25.764719 
	C131.718369,25.788160 131.511185,25.594294 131.176376,25.227161 
	C131.339111,25.140892 131.579956,25.305397 131.848419,25.764719 
z"/>
<path fill="#78341F" opacity="1.000000" stroke="none" 
	d="
M22.042597,20.534870 
	C25.526365,19.004211 29.561783,18.739681 29.841112,13.606821 
	C29.873268,13.015936 32.260788,12.209456 33.603836,12.102939 
	C36.708565,11.856700 39.842503,11.978726 43.451183,12.366058 
	C43.466393,17.357916 45.098671,19.817503 50.439522,19.090759 
	C52.709938,19.541044 54.803574,19.403572 56.510490,20.150200 
	C58.508820,21.024296 60.170319,22.668438 61.660591,24.003651 
	C60.568897,24.309143 59.794548,24.589523 58.555580,24.901764 
	C55.002113,24.960886 51.910797,25.077394 48.825069,24.991976 
	C45.265205,24.893429 43.673264,26.455851 44.076286,30.245760 
	C44.018101,30.470287 43.923660,30.924463 43.698154,30.972549 
	C43.472649,31.020638 43.023960,31.130495 42.560555,31.098179 
	C39.660160,31.045267 37.212700,31.160927 34.788445,30.974590 
	C30.289108,30.628754 28.410206,32.554901 29.080231,37.244808 
	C29.017345,37.476940 28.910936,37.946022 28.506565,37.960350 
	C23.312208,37.077633 21.933754,40.265701 20.534851,43.953430 
	C18.405426,43.978630 16.701561,43.989273 14.993181,43.993923 
	C14.988666,43.987930 14.974902,43.973652 14.974901,43.973652 
	C14.975794,41.333714 15.065487,38.690018 14.954021,36.054832 
	C14.828262,33.081688 15.320502,31.016052 19.021124,30.666086 
	C20.098314,30.564215 21.417091,28.350580 21.812923,26.885513 
	C22.313299,25.033508 21.983110,22.957104 22.042597,20.534870 
z"/>
<path fill="#79341F" opacity="1.000000" stroke="none" 
	d="
M6.198133,55.981003 
	C5.926288,55.842403 5.989422,55.461891 6.028672,55.273407 
	C6.388337,51.695328 6.708753,48.305740 7.046205,44.467255 
	C8.448697,43.999187 9.834154,43.980019 11.636581,43.933350 
	C12.783785,43.927166 13.514018,43.948479 14.609577,43.971722 
	C14.974902,43.973652 14.988666,43.987930 14.971933,44.454559 
	C15.020023,48.619747 15.084846,52.318302 14.984613,56.227852 
	C14.553604,56.676487 14.287651,56.914131 13.592655,57.114986 
	C11.443616,57.091270 9.723619,57.104343 8.003624,57.117416 
	C7.492409,56.784813 6.981194,56.452209 6.198133,55.981003 
z"/>
<path fill="#A63C47" opacity="1.000000" stroke="none" 
	d="
M50.091679,18.894068 
	C45.098671,19.817503 43.466393,17.357916 43.907490,12.344650 
	C43.938278,10.537256 43.999352,9.165931 44.563744,7.391723 
	C53.705387,6.716455 62.343704,6.444069 70.982025,6.171683 
	C70.982025,6.171683 70.984482,6.007030 70.982262,5.924723 
	C73.707848,5.905013 76.435654,5.967610 79.764771,6.243461 
	C80.577087,6.640525 80.791145,6.820696 81.008270,6.997225 
	C84.050224,6.641258 87.092171,6.285292 90.571609,5.881549 
	C94.730331,6.115089 98.451569,6.396407 102.569168,7.228079 
	C103.353065,9.144672 103.740593,10.510912 104.048996,11.944211 
	C103.969872,12.011271 103.811325,12.145052 103.513245,12.114508 
	C102.815918,12.090282 102.416679,12.096601 102.017433,12.102920 
	C102.017433,12.102920 101.981201,11.970830 101.855064,11.871615 
	C101.497467,11.731572 101.281715,11.775982 101.081673,11.905629 
	C85.009445,11.960710 68.937210,12.015790 52.217934,12.198110 
	C51.353203,12.498184 51.181179,12.708396 51.054817,12.955986 
	C51.008110,14.342660 50.961399,15.729335 50.739204,17.668463 
	C50.367569,18.418085 50.210220,18.642469 50.091679,18.894068 
z"/>
<path fill="#B63F4F" opacity="1.000000" stroke="none" 
	d="
M70.552177,6.112476 
	C62.343704,6.444069 53.705387,6.716455 44.608898,6.981813 
	C44.150730,6.974786 44.070267,6.508069 44.082794,6.271603 
	C49.751808,5.707799 55.408287,5.380461 61.517563,5.089803 
	C64.687675,5.435412 67.405006,5.744340 70.552177,6.112476 
z"/>
<path fill="#482F5B" opacity="1.000000" stroke="none" 
	d="
M117.051682,69.483276 
	C117.061195,73.669151 117.044281,77.398308 117.040848,81.591507 
	C117.043137,84.061691 117.031952,86.067841 117.038811,88.928276 
	C116.979782,91.498848 116.902710,93.215134 116.485344,95.099815 
	C110.598022,95.488159 109.627785,98.785919 109.926620,103.637062 
	C110.283043,109.423203 109.966988,115.250755 109.888519,121.161148 
	C109.762878,121.487938 109.789177,121.704292 110.270554,122.129990 
	C115.389732,122.549133 120.152039,122.749260 124.932556,123.347366 
	C124.987755,124.803078 125.024734,125.860794 125.061722,126.918518 
	C124.794662,127.100555 124.545341,127.304291 123.723129,127.742805 
	C119.447784,127.687202 116.402992,128.199921 116.752731,133.192337 
	C116.390045,133.530228 116.201172,133.740646 116.027794,133.964966 
	C112.316551,134.013519 108.605309,134.062057 104.434669,134.087830 
	C103.975273,134.065063 103.988739,133.970764 103.839951,133.799896 
	C103.484734,133.407867 103.264076,133.201950 102.979111,133.020081 
	C102.929024,133.028931 102.827820,133.039307 102.851746,132.643494 
	C101.651459,130.848587 100.556580,128.424606 99.177765,128.250610 
	C95.636734,127.803764 94.810020,125.969559 94.959534,122.604584 
	C94.944763,121.494652 94.910461,120.755165 94.919006,119.647530 
	C95.315178,118.135712 95.668488,116.992043 96.424210,115.893166 
	C99.182304,115.699951 102.325409,117.074532 102.851303,112.545959 
	C102.863670,105.046196 102.839363,98.014542 102.790268,90.685242 
	C102.181915,89.965729 101.598343,89.543861 100.604797,89.084381 
	C98.824646,88.979973 97.454468,88.913170 95.964233,88.661362 
	C95.657310,88.242943 95.431328,88.057076 95.111389,87.535202 
	C94.993523,86.120949 94.930496,85.090233 94.899460,83.625580 
	C95.883972,78.293777 93.659546,76.416718 88.812027,76.747253 
	C88.480545,76.393448 88.273056,76.211060 88.040726,75.656113 
	C88.038116,74.487793 88.045555,73.708870 88.217529,72.678741 
	C88.580521,71.655350 88.778969,70.883171 89.397842,70.070572 
	C91.505661,69.979088 93.193069,69.928009 95.172806,69.917694 
	C95.659996,69.985909 95.854851,70.013359 96.155190,70.095322 
	C96.260674,70.149849 96.606842,70.179337 96.606842,70.179337 
	C96.606842,70.179337 96.935028,70.054588 97.350250,70.038055 
	C101.382957,70.318466 103.438652,68.976372 103.405724,65.018021 
	C105.846901,64.342216 107.890945,63.673943 109.944473,62.592304 
	C109.976898,60.804943 109.999840,59.430950 110.203934,57.929253 
	C110.619820,57.619167 110.827690,57.410080 111.008698,57.174282 
	C115.462608,56.295555 117.541740,57.920223 117.039474,62.635044 
	C116.815010,64.742142 117.016869,66.894661 117.051682,69.483276 
z"/>
<path fill="#392632" opacity="1.000000" stroke="none" 
	d="
M125.395172,127.074310 
	C125.024734,125.860794 124.987755,124.803078 124.963203,122.933472 
	C125.372787,119.748611 125.769943,117.375626 126.167099,115.002632 
	C127.493126,114.981209 128.819153,114.959785 130.911713,115.077789 
	C134.096344,115.512238 136.514450,115.807266 138.932541,116.102295 
	C138.622894,121.904030 131.049789,128.286392 125.395172,127.074310 
z"/>
<path fill="#553336" opacity="1.000000" stroke="none" 
	d="
M138.955811,115.808701 
	C136.514450,115.807266 134.096344,115.512238 131.308777,115.051285 
	C132.055771,110.450638 134.194626,107.620758 139.678452,109.711731 
	C139.676819,111.324448 139.347321,112.752220 139.020401,114.553864 
	C139.008347,115.123520 138.993698,115.319313 138.955811,115.808701 
z"/>
<path fill="#372329" opacity="1.000000" stroke="none" 
	d="
M124.944733,142.479401 
	C123.939362,139.210861 123.657722,134.781052 117.429459,135.998291 
	C117.023895,135.526337 117.044434,135.055099 117.252670,134.098602 
	C117.656975,133.420059 117.857330,133.211182 118.461502,132.989319 
	C120.551865,133.001587 122.222153,133.011261 123.892448,133.020935 
	C124.134071,133.538605 124.375702,134.056259 124.809486,134.787506 
	C124.987389,137.348755 124.973122,139.696426 124.944733,142.479401 
z"/>
<path fill="#392632" opacity="1.000000" stroke="none" 
	d="
M123.917732,132.625305 
	C122.222153,133.011261 120.551865,133.001587 118.474945,132.606934 
	C118.469803,128.131454 121.593842,129.214767 124.068710,129.064438 
	C124.026817,130.119522 123.984917,131.174591 123.917732,132.625305 
z"/>
<path fill="#302115" opacity="1.000000" stroke="none" 
	d="
M124.158539,128.923859 
	C121.593842,129.214767 118.469803,128.131454 118.054878,132.604340 
	C117.857330,133.211182 117.656975,133.420059 117.271469,133.745331 
	C117.102562,133.877304 117.022308,133.921509 116.988571,133.719818 
	C116.954826,133.518143 116.911034,133.050934 116.911034,133.050934 
	C116.402992,128.199921 119.447784,127.687202 123.559738,127.920937 
	C124.074112,128.185089 124.161232,128.484192 124.158539,128.923859 
z"/>
<path fill="#352408" opacity="1.000000" stroke="none" 
	d="
M110.998077,4.001595 
	C121.005592,3.996583 121.005920,3.996583 120.999352,13.942227 
	C120.998474,15.269056 120.992409,16.595882 120.608383,18.434593 
	C119.469513,19.013159 118.711006,19.079842 117.713898,19.020472 
	C117.266846,18.606739 117.058395,18.319057 116.896622,17.619293 
	C117.795677,12.298189 114.648842,11.800448 111.014771,11.432789 
	C111.001015,9.685417 110.991074,8.341199 110.985825,6.622018 
	C110.994690,5.496799 110.998871,4.746541 111.003052,3.996283 
	C111.003052,3.996283 111.000206,3.999954 110.998077,4.001595 
z"/>
<path fill="#A63C47" opacity="1.000000" stroke="none" 
	d="
M117.952492,19.146523 
	C118.711006,19.079842 119.469513,19.013159 120.604843,18.890709 
	C124.592812,18.860451 125.203415,21.193489 125.084579,24.513411 
	C125.061356,26.670658 124.998222,28.432690 124.901726,30.634289 
	C116.897133,30.820902 116.897133,30.820902 117.268288,20.370872 
	C117.652557,19.605597 117.820663,19.390219 117.952492,19.146523 
z"/>
<path fill="#623F6A" opacity="1.000000" stroke="none" 
	d="
M125.983383,114.651680 
	C125.769943,117.375626 125.372787,119.748611 124.944992,122.535492 
	C120.152039,122.749260 115.389732,122.549133 110.281509,121.918037 
	C109.935593,121.487076 109.942253,121.060371 109.942253,121.060371 
	C109.966988,115.250755 110.283043,109.423203 109.926620,103.637062 
	C109.627785,98.785919 110.598022,95.488159 116.525024,95.449348 
	C116.947441,96.097198 116.989899,96.563919 117.028427,97.485336 
	C117.019684,99.425957 116.995407,100.912117 117.013397,102.397766 
	C117.091927,108.882881 118.422935,109.834877 124.857407,108.029793 
	C125.171501,110.120102 125.485588,112.210419 125.983383,114.651680 
z"/>
<path fill="#482F5B" opacity="1.000000" stroke="none" 
	d="
M124.896210,107.571106 
	C118.422935,109.834877 117.091927,108.882881 117.013397,102.397766 
	C116.995407,100.912117 117.019684,99.425957 117.471832,97.482277 
	C120.302498,96.998466 122.685814,96.972412 125.069138,96.946358 
	C125.069138,96.946358 125.062073,97.023033 125.023743,97.019943 
	C124.968613,100.382050 124.951813,103.747238 124.896210,107.571106 
z"/>
<path fill="#D19686" opacity="1.000000" stroke="none" 
	d="
M51.424316,135.118011 
	C48.776638,135.032547 46.582596,134.889374 44.163078,134.015137 
	C43.931614,131.894608 43.925632,130.505157 44.282372,128.948120 
	C46.766796,128.516983 48.888504,128.253418 51.286175,127.969635 
	C51.744205,127.919739 51.926273,127.890060 52.558235,127.908524 
	C56.648884,127.945801 60.289635,127.934959 64.280273,127.988022 
	C65.100563,128.019043 65.570953,127.986153 66.025665,128.377167 
	C65.970238,130.494171 65.930489,132.187271 65.890739,133.880371 
	C61.219810,134.273682 56.548882,134.666977 51.424316,135.118011 
z"/>
<path fill="#8C634C" opacity="1.000000" stroke="none" 
	d="
M66.328575,133.895432 
	C65.930489,132.187271 65.970238,130.494171 66.013771,128.390701 
	C66.017555,127.980331 66.028473,127.976288 66.264160,127.984909 
	C66.499840,127.993530 66.968025,127.933037 67.376266,127.969330 
	C68.874657,127.966629 69.964806,127.927635 71.363647,127.923035 
	C72.083405,128.003922 72.494461,128.050415 72.944672,128.311157 
	C72.983833,128.525406 73.020195,128.959457 73.020859,129.355438 
	C73.063477,130.803757 73.105438,131.856094 73.147400,132.908417 
	C73.117256,133.102509 73.087105,133.296600 72.773766,133.769653 
	C72.490570,134.048599 72.019943,134.086426 72.019943,134.086426 
	C70.268768,134.027771 68.517586,133.969131 66.328575,133.895432 
z"/>
<path fill="#492634" opacity="1.000000" stroke="none" 
	d="
M72.012192,134.511169 
	C72.019943,134.086426 72.490570,134.048599 72.725647,134.060303 
	C72.969887,136.084457 72.979057,138.096909 72.985474,140.542236 
	C72.982719,140.975128 72.498161,140.965118 72.258217,140.931259 
	C72.013664,138.910248 72.009056,136.923080 72.012192,134.511169 
z"/>
<path fill="#492634" opacity="1.000000" stroke="none" 
	d="
M64.645996,140.774139 
	C63.584064,140.940536 62.244900,140.943100 60.506401,140.927307 
	C61.527630,140.809402 62.948189,140.709839 64.645996,140.774139 
z"/>
<path fill="#A63C47" opacity="1.000000" stroke="none" 
	d="
M138.918396,49.623283 
	C135.725235,49.589134 130.702209,51.366741 132.765488,44.464989 
	C136.729202,43.659710 139.399429,44.580231 138.918396,49.623283 
z"/>
<path fill="#514629" opacity="1.000000" stroke="none" 
	d="
M21.983105,134.449432 
	C25.068758,133.836716 28.856913,134.792404 29.453911,129.388351 
	C32.247517,129.017502 34.621330,129.023514 36.984016,129.454254 
	C36.988529,131.578278 37.004169,133.277603 37.019806,134.976913 
	C36.990170,136.733322 36.960533,138.489731 36.915741,140.684525 
	C34.580223,141.088058 32.259861,141.053192 29.506046,141.060196 
	C27.320894,141.404221 25.569197,141.706375 23.430395,142.025696 
	C22.693455,139.652435 22.343618,137.262009 21.983105,134.449432 
z"/>
<path fill="#8D634D" opacity="1.000000" stroke="none" 
	d="
M37.415432,134.985870 
	C37.004169,133.277603 36.988529,131.578278 37.011078,129.101715 
	C37.049442,128.088745 37.049618,127.853035 37.443207,127.704422 
	C39.864300,128.232910 41.891975,128.674301 43.919655,129.115692 
	C43.925632,130.505157 43.931614,131.894608 43.904068,133.699524 
	C41.850712,134.408234 39.830883,134.701523 37.415432,134.985870 
z"/>
<path fill="#543235" opacity="1.000000" stroke="none" 
	d="
M73.511818,133.085724 
	C73.105438,131.856094 73.063477,130.803757 73.419853,129.378693 
	C75.842636,128.638184 77.867081,128.270432 80.249954,128.045120 
	C83.051788,128.095718 85.495193,128.003876 87.954216,128.332489 
	C88.003723,130.406891 88.037613,132.060806 88.055717,133.804993 
	C88.039932,133.895279 87.999435,134.074020 87.999435,134.074036 
	C83.291702,133.803696 78.583969,133.533371 73.511818,133.085724 
z"/>
<path fill="#78331E" opacity="1.000000" stroke="none" 
	d="
M88.011536,139.994858 
	C88.006042,138.301636 88.000549,136.608429 87.997246,134.494614 
	C87.999435,134.074020 88.039932,133.895279 88.468338,133.871368 
	C90.566574,133.929764 92.236404,134.012054 94.066742,134.434830 
	C94.466835,136.515137 94.706421,138.254990 94.513901,139.996735 
	C92.058380,139.997391 90.034958,139.996124 88.011536,139.994858 
z"/>
<path fill="#652A12" opacity="1.000000" stroke="none" 
	d="
M88.010262,140.225449 
	C90.034958,139.996124 92.058380,139.997391 94.529022,140.185547 
	C94.976234,140.372452 94.997971,140.750488 94.997971,140.750488 
	C94.997971,140.750488 94.984146,140.936020 94.991043,141.029434 
	C92.966530,141.075439 90.935120,141.028046 88.472549,140.948364 
	C88.041405,140.916077 88.008987,140.456039 88.010262,140.225449 
z"/>
<path fill="#553335" opacity="1.000000" stroke="none" 
	d="
M95.279892,140.853821 
	C94.997971,140.750488 94.976234,140.372452 94.961121,140.183640 
	C94.706421,138.254990 94.466835,136.515137 94.501511,134.413788 
	C97.459785,133.714630 100.143799,133.376968 102.827820,133.039307 
	C102.827820,133.039307 102.929024,133.028931 103.110825,133.206451 
	C103.491341,133.619095 103.723381,133.814697 103.988739,133.970764 
	C103.988739,133.970764 103.975273,134.065063 103.972366,134.114136 
	C103.638947,136.196198 103.308441,138.229172 102.539383,140.638824 
	C100.111488,141.058060 98.122139,141.100647 96.132782,141.143234 
	C95.942467,141.081207 95.752144,141.019165 95.279892,140.853821 
z"/>
<path fill="#BD3F4D" opacity="1.000000" stroke="none" 
	d="
M96.459900,141.310135 
	C98.122139,141.100647 100.111488,141.058060 102.528809,141.042252 
	C102.956779,141.069031 102.961792,141.554062 102.908936,141.790710 
	C100.833054,141.843918 98.810036,141.660477 96.459900,141.310135 
z"/>
<path fill="#4C3265" opacity="1.000000" stroke="none" 
	d="
M116.752731,133.192337 
	C116.911034,133.050934 116.954826,133.518143 116.956627,133.752686 
	C116.958427,133.987213 116.492577,133.987213 116.260185,133.976089 
	C116.201172,133.740646 116.390045,133.530228 116.752731,133.192337 
z"/>
<path fill="#482F5C" opacity="1.000000" stroke="none" 
	d="
M7.828017,57.484924 
	C9.723619,57.104343 11.443616,57.091270 13.740065,57.465870 
	C14.569096,59.928360 14.821674,62.003178 15.046614,64.533966 
	C15.005200,69.001053 14.991426,73.012184 14.941149,77.296463 
	C14.881476,77.751877 14.858308,77.934135 14.835138,78.116402 
	C12.823272,78.072983 10.811406,78.029564 8.366214,77.963455 
	C7.599942,75.881798 7.266996,73.822823 6.899424,71.361389 
	C7.127335,66.590096 7.389873,62.221264 7.828017,57.484924 
z"/>
<path fill="#433008" opacity="1.000000" stroke="none" 
	d="
M110.981133,6.996978 
	C110.991074,8.341199 111.001015,9.685417 110.585075,11.482456 
	C108.148834,11.915901 106.138481,11.896526 104.128120,11.877151 
	C103.740593,10.510912 103.353065,9.144672 102.933769,7.415360 
	C103.543373,6.243226 104.184746,5.434165 104.911774,4.320905 
	C105.748833,4.014966 106.500244,4.013226 107.721542,4.321507 
	C109.121338,5.420012 110.051239,6.208493 110.981133,6.996978 
z"/>
<path fill="#B63F4F" opacity="1.000000" stroke="none" 
	d="
M80.981201,6.794440 
	C80.791145,6.820696 80.577087,6.640525 80.215378,6.310727 
	C80.064674,6.164742 80.493004,6.117517 80.705551,6.150797 
	C80.918106,6.184077 80.954132,6.591655 80.981201,6.794440 
z"/>
<path fill="#433008" opacity="1.000000" stroke="none" 
	d="
M110.985825,6.622016 
	C110.051239,6.208493 109.121338,5.420012 108.097168,4.324430 
	C108.752846,4.011596 109.502800,4.005861 110.627899,3.998205 
	C110.998871,4.746541 110.994690,5.496799 110.985825,6.622016 
z"/>
<path fill="#D3B95B" opacity="1.000000" stroke="none" 
	d="
M80.838692,20.009834 
	C86.854561,17.911022 87.861511,18.575291 88.052544,24.499331 
	C88.114769,26.429050 88.532532,28.347303 88.781975,30.999577 
	C88.540314,33.826103 88.304367,35.923855 88.048706,37.930435 
	C88.028984,37.839268 87.845558,37.875793 87.426620,37.909409 
	C85.325081,37.914215 83.642471,37.885406 81.899994,37.647255 
	C81.672783,37.181221 81.440269,37.016472 81.105255,36.490028 
	C80.999329,32.686287 80.930748,29.336176 80.909409,25.658894 
	C80.936470,24.892134 80.916283,24.452543 80.930527,23.613844 
	C80.922859,22.146433 80.880775,21.078135 80.838692,20.009834 
z"/>
<path fill="#998345" opacity="1.000000" stroke="none" 
	d="
M66.989891,24.867409 
	C68.391754,24.927155 69.793610,24.986904 71.650513,25.305538 
	C72.275345,25.847805 72.523407,26.015343 72.894760,26.519337 
	C73.005867,30.318340 73.071960,33.665043 73.081512,37.206108 
	C73.024963,37.400475 73.011566,37.805099 72.781891,38.015434 
	C71.705589,39.111706 70.858971,39.997643 69.669617,40.856598 
	C68.161171,39.530113 66.995476,38.230606 65.878044,36.485504 
	C65.633621,32.405552 65.340919,28.771194 65.372009,25.093121 
	C66.127167,24.988739 66.558533,24.928074 66.989891,24.867409 
z"/>
<path fill="#A63C47" opacity="1.000000" stroke="none" 
	d="
M104.048996,11.944212 
	C106.138481,11.896526 108.148834,11.915901 110.588890,11.885609 
	C114.648842,11.800448 117.795677,12.298189 116.511063,17.613047 
	C114.362640,18.321850 112.646461,18.624817 110.930275,18.927784 
	C107.345360,18.759127 102.702538,20.237175 103.245430,13.351931 
	C103.596481,12.626164 103.732430,12.402980 103.811325,12.145052 
	C103.811325,12.145052 103.969872,12.011271 104.048996,11.944212 
z"/>
<path fill="#482F5B" opacity="1.000000" stroke="none" 
	d="
M104.010315,44.178295 
	C108.501587,43.280697 110.569008,44.959984 110.030418,49.664757 
	C109.825775,51.452473 109.961220,53.279121 109.712662,55.684731 
	C109.267479,56.486637 109.076233,56.712933 108.488892,56.968960 
	C106.636833,57.033611 105.205803,57.089615 103.643234,56.784912 
	C103.317162,54.641155 103.122635,52.858097 102.942993,50.673889 
	C103.308701,48.241257 103.659508,46.209774 104.010315,44.178295 
z"/>
<path fill="#D65F44" opacity="1.000000" stroke="none" 
	d="
M66.990280,24.459129 
	C66.558533,24.928074 66.127167,24.988739 65.312668,25.057514 
	C64.929527,25.065620 64.857445,24.947445 64.616364,24.757900 
	C63.576172,24.371750 62.777050,24.175146 61.977932,23.978542 
	C60.170319,22.668438 58.508820,21.024296 56.510490,20.150200 
	C54.803574,19.403572 52.709938,19.541044 50.439522,19.090759 
	C50.210220,18.642469 50.367569,18.418085 50.717274,18.084045 
	C54.190891,17.966900 57.519623,18.146507 60.828892,17.967075 
	C65.259338,17.726856 67.448189,19.477451 66.990280,24.459129 
z"/>
<path fill="#613F6A" opacity="1.000000" stroke="none" 
	d="
M103.769119,44.023705 
	C103.659508,46.209774 103.308701,48.241257 102.520515,50.649990 
	C96.845192,51.673241 94.332657,49.485924 94.936935,44.061890 
	C94.984283,44.016159 95.079094,43.924824 95.486122,43.946327 
	C98.201225,43.638096 100.509300,43.308361 102.817375,42.978630 
	C103.054222,43.275459 103.291069,43.572289 103.769119,44.023705 
z"/>
<path fill="#472E5A" opacity="1.000000" stroke="none" 
	d="
M88.068420,38.021603 
	C88.304367,35.923855 88.540314,33.826103 88.969391,31.373508 
	C92.991791,30.605209 95.701065,31.445549 94.536606,36.741905 
	C92.114525,37.545940 90.091469,37.783772 88.068420,38.021603 
z"/>
<path fill="#462E5A" opacity="1.000000" stroke="none" 
	d="
M102.872673,42.580151 
	C100.509300,43.308361 98.201225,43.638096 95.461121,43.574528 
	C95.359123,41.514828 95.689163,39.848431 96.019203,38.182030 
	C99.036171,38.281834 103.168930,36.454285 102.872673,42.580151 
z"/>
<path fill="#623F6A" opacity="1.000000" stroke="none" 
	d="
M95.777969,38.028137 
	C95.689163,39.848431 95.359123,41.514828 95.054092,43.553024 
	C95.079094,43.924824 94.984283,44.016159 94.552628,44.027603 
	C92.144028,43.682789 90.167084,43.326538 88.141731,42.547859 
	C88.010742,40.708889 87.928146,39.292343 87.845551,37.875793 
	C87.845558,37.875793 88.028984,37.839268 88.048706,37.930435 
	C90.091469,37.783772 92.114525,37.545940 94.478554,37.149544 
	C95.058601,37.285400 95.297668,37.579826 95.777969,38.028137 
z"/>
<path fill="#988146" opacity="1.000000" stroke="none" 
	d="
M73.991676,23.827955 
	C73.801964,19.901516 76.443695,19.901693 79.607193,20.462696 
	C80.012375,21.848541 80.015823,22.840031 79.592529,23.897968 
	C77.441086,23.918928 75.716385,23.873442 73.991676,23.827955 
z"/>
<path fill="#FDEFFC" opacity="1.000000" stroke="none" 
	d="
M73.720978,23.947109 
	C75.716385,23.873442 77.441086,23.918928 79.806862,23.966843 
	C80.447929,23.969271 80.896103,24.012955 80.896103,24.012955 
	C80.916283,24.452543 80.936470,24.892134 80.467560,25.663223 
	C77.602226,26.018829 75.225983,26.042931 72.849739,26.067034 
	C72.523407,26.015343 72.275345,25.847805 72.070816,25.337366 
	C72.507484,24.762293 72.978882,24.414276 73.720978,23.947109 
z"/>
<path fill="#D65F44" opacity="1.000000" stroke="none" 
	d="
M111.270630,19.123611 
	C112.646461,18.624817 114.362640,18.321850 116.464386,18.025127 
	C117.058395,18.319057 117.266846,18.606739 117.713898,19.020470 
	C117.820663,19.390219 117.652557,19.605597 117.290741,19.923521 
	C115.292534,19.809404 113.451759,19.564423 111.270630,19.123611 
z"/>
<path fill="#856F3F" opacity="1.000000" stroke="none" 
	d="
M80.930527,23.613844 
	C80.896103,24.012955 80.447929,23.969271 80.233597,23.900396 
	C80.015823,22.840031 80.012375,21.848541 80.013474,20.488789 
	C80.018021,20.120527 80.426941,20.050875 80.632812,20.030354 
	C80.880775,21.078135 80.922859,22.146433 80.930527,23.613844 
z"/>
<path fill="#D65F44" opacity="1.000000" stroke="none" 
	d="
M103.513245,12.114508 
	C103.732430,12.402980 103.596481,12.626164 103.259277,12.950188 
	C102.854950,12.884778 102.605217,12.671617 102.191650,12.274603 
	C102.416679,12.096601 102.815918,12.090282 103.513245,12.114508 
z"/>
<path fill="#9D3348" opacity="1.000000" stroke="none" 
	d="
M101.298363,11.897524 
	C101.281715,11.775982 101.497467,11.731572 101.837341,11.805466 
	C101.945747,11.838530 101.515053,11.889420 101.298363,11.897524 
z"/>
<path fill="#D65F44" opacity="1.000000" stroke="none" 
	d="
M51.209518,12.826241 
	C51.181179,12.708396 51.353203,12.498184 51.744568,12.218779 
	C51.749020,12.321620 51.564342,12.516383 51.209518,12.826241 
z"/>
<path fill="#623F6A" opacity="1.000000" stroke="none" 
	d="
M108.909927,56.960312 
	C109.076233,56.712933 109.267479,56.486637 109.654259,56.138489 
	C109.824837,55.995544 109.955360,56.466442 109.971558,56.739456 
	C109.987762,57.012466 109.919090,57.080372 109.667084,57.049500 
	C109.246689,56.999187 109.078308,56.979748 108.909927,56.960312 
z"/>
<path fill="#623F6A" opacity="1.000000" stroke="none" 
	d="
M110.772400,57.109787 
	C110.827690,57.410080 110.619820,57.619167 110.179039,57.684727 
	C109.972992,57.567905 109.919090,57.080372 109.919090,57.080372 
	C109.919090,57.080372 109.987762,57.012466 110.022224,56.978470 
	C110.056686,56.944469 110.536095,57.045288 110.772400,57.109787 
z"/>
<path fill="#8C634B" opacity="1.000000" stroke="none" 
	d="
M125.049683,96.516724 
	C122.685814,96.972412 120.302498,96.998466 117.475761,97.027580 
	C116.989899,96.563919 116.947441,96.097198 116.865311,95.280945 
	C116.902710,93.215134 116.979782,91.498848 117.090805,89.354439 
	C124.914787,89.110985 124.914787,89.110985 125.049683,96.516724 
z"/>
<path fill="#482F5B" opacity="1.000000" stroke="none" 
	d="
M21.058905,89.050125 
	C18.124502,88.946579 14.738944,89.480347 15.207884,84.248558 
	C15.569223,83.504646 15.756981,83.294899 16.343979,83.055275 
	C17.858896,83.042862 18.960867,83.048065 20.169819,83.105064 
	C20.276802,83.156860 20.626005,83.174515 20.626005,83.174515 
	C20.626005,83.174515 20.952658,83.039284 21.243868,82.995956 
	C21.729570,82.926208 21.924061,82.899788 22.573273,82.900757 
	C27.645361,82.910744 32.262726,82.893349 37.172005,82.916611 
	C37.658482,82.984680 37.853046,83.012093 38.153572,83.094315 
	C38.259529,83.149109 38.607269,83.178787 38.607269,83.178787 
	C38.607269,83.178787 38.936935,83.053429 39.367393,83.039322 
	C41.234196,83.050484 42.670547,83.075745 44.064529,83.502235 
	C44.000992,85.249428 43.979824,86.595390 43.575729,88.118034 
	C38.476742,88.578178 33.760677,88.861633 28.603582,89.090317 
	C25.794668,89.040413 23.426786,89.045265 21.058905,89.050125 
z"/>
<path fill="#8B624C" opacity="1.000000" stroke="none" 
	d="
M29.013672,109.013222 
	C29.006855,108.845833 29.000040,108.678444 28.986141,108.259857 
	C28.755939,106.260757 28.532825,104.512863 28.021088,102.111542 
	C26.489878,99.692337 25.247295,97.926559 24.401405,96.114182 
	C25.862808,96.049942 26.927523,96.032295 28.131187,96.367828 
	C28.925529,99.947929 29.809526,102.710175 34.189987,102.200409 
	C34.986332,102.107735 36.894169,104.348328 36.768387,105.313675 
	C36.597923,106.621918 35.160088,108.074821 33.888500,108.831207 
	C32.881374,109.430290 31.306238,109.074478 29.743225,109.093018 
	C29.503120,109.043358 29.013672,109.013222 29.013672,109.013222 
z"/>
<path fill="#D29686" opacity="1.000000" stroke="none" 
	d="
M27.992235,96.014648 
	C26.927523,96.032295 25.862808,96.049942 24.088799,96.061371 
	C22.959488,96.009331 22.539473,95.963501 22.119459,95.917664 
	C21.849316,93.872925 21.579172,91.828194 21.183968,89.416794 
	C23.426786,89.045265 25.794668,89.040413 28.588257,89.493347 
	C28.673386,91.972313 28.332809,93.993477 27.992235,96.014648 
z"/>
<path fill="#613F6A" opacity="1.000000" stroke="none" 
	d="
M20.062836,83.053268 
	C18.960867,83.048065 17.858896,83.042862 16.127869,83.026810 
	C15.498808,83.015968 15.065599,82.956093 15.065599,82.956093 
	C15.018106,81.609215 14.970613,80.262337 14.879128,78.515930 
	C14.858308,77.934135 14.881476,77.751877 15.299753,77.437340 
	C18.712154,78.150520 22.714575,77.859535 22.118549,82.873375 
	C21.924061,82.899788 21.729570,82.926208 21.021709,82.997421 
	C20.508339,83.042213 20.062836,83.053268 20.062836,83.053268 
z"/>
<path fill="#8C634C" opacity="1.000000" stroke="none" 
	d="
M22.084862,96.350098 
	C22.539473,95.963501 22.959488,96.009331 23.692108,96.107971 
	C25.247295,97.926559 26.489878,99.692337 27.855480,101.770798 
	C22.263998,103.731651 22.015648,103.509583 22.084862,96.350098 
z"/>
<path fill="#3E2855" opacity="1.000000" stroke="none" 
	d="
M15.057941,83.213783 
	C15.065599,82.956093 15.498808,83.015968 15.714918,83.044434 
	C15.756981,83.294899 15.569223,83.504646 15.211880,83.844589 
	C15.054098,83.815193 15.052191,83.643333 15.057941,83.213783 
z"/>
<path fill="#D39787" opacity="1.000000" stroke="none" 
	d="
M37.049789,127.617325 
	C37.049618,127.853035 37.049442,128.088745 37.022202,128.677002 
	C34.621330,129.023514 32.247517,129.017502 29.489773,128.994843 
	C29.058842,127.280151 29.011843,125.582092 28.926018,123.462563 
	C29.091816,123.026886 29.296440,123.012680 30.180447,122.984894 
	C32.278648,122.687515 33.697472,122.403709 35.283348,122.094543 
	C35.450405,122.069191 35.782459,122.004753 35.955620,122.215378 
	C36.420399,122.638771 36.712025,122.851532 37.008259,123.445877 
	C37.025177,125.090752 37.037483,126.354042 37.049789,127.617325 
z"/>
<path fill="#FFDCBC" opacity="1.000000" stroke="none" 
	d="
M35.116291,122.119904 
	C33.697472,122.403709 32.278648,122.687515 30.487392,122.963669 
	C29.745735,118.615204 29.376516,114.274399 29.010485,109.473404 
	C29.013672,109.013222 29.503120,109.043358 29.747871,109.542984 
	C30.437538,114.604172 27.896521,120.432495 35.116291,122.119904 
z"/>
<path fill="#482F5B" opacity="1.000000" stroke="none" 
	d="
M64.988876,25.101229 
	C65.340919,28.771194 65.633621,32.405552 65.515839,36.495674 
	C63.022163,37.041344 60.938953,37.131248 58.894684,36.781006 
	C58.951038,34.890331 58.968460,33.439804 58.843563,31.807348 
	C58.495949,31.393684 58.265900,31.189882 57.547592,31.008310 
	C53.086971,30.987520 49.089851,30.972437 44.949776,30.784328 
	C44.604313,30.389982 44.380203,30.193293 44.134476,30.021233 
	C43.673264,26.455851 45.265205,24.893429 48.825069,24.991976 
	C51.910797,25.077394 55.002113,24.960886 58.976467,24.944820 
	C61.527130,24.953159 63.192287,24.950302 64.857445,24.947445 
	C64.857445,24.947445 64.929527,25.065620 64.988876,25.101229 
z"/>
<path fill="#482F5B" opacity="1.000000" stroke="none" 
	d="
M29.143114,37.012676 
	C28.410206,32.554901 30.289108,30.628754 34.788445,30.974590 
	C37.212700,31.160927 39.660160,31.045267 42.696796,31.275616 
	C43.493843,31.712812 43.714149,31.915340 43.965778,32.505104 
	C43.953896,34.571796 43.933594,36.226345 43.910904,37.894753 
	C43.908516,37.908611 43.880795,37.921688 43.425339,37.930893 
	C38.360958,37.630959 33.752037,37.321819 29.143114,37.012676 
z"/>
<path fill="#613F6A" opacity="1.000000" stroke="none" 
	d="
M29.080231,37.244808 
	C33.752037,37.321819 38.360958,37.630959 43.445595,38.349358 
	C44.278191,42.544228 42.472984,44.108486 38.771507,43.993805 
	C35.525574,43.893238 32.273060,44.004940 29.024855,43.589172 
	C28.987818,41.418983 28.949377,39.682503 28.910938,37.946022 
	C28.910936,37.946022 29.017345,37.476940 29.080231,37.244808 
z"/>
<path fill="#482F5B" opacity="1.000000" stroke="none" 
	d="
M15.149671,56.016861 
	C15.084846,52.318302 15.020023,48.619747 14.976449,44.460552 
	C16.701561,43.989273 18.405426,43.978630 20.558060,43.977516 
	C21.006828,43.987053 21.052658,44.034576 21.183723,44.399338 
	C21.566523,46.868084 21.818254,48.972069 22.044487,51.491558 
	C21.923361,53.562309 21.827738,55.217560 21.351349,56.890228 
	C19.030279,56.610722 17.089975,56.313793 15.149671,56.016861 
z"/>
<path fill="#452D59" opacity="1.000000" stroke="none" 
	d="
M28.506567,37.960350 
	C28.949377,39.682503 28.987818,41.418983 29.019711,43.581200 
	C29.013163,44.006939 29.023762,44.023933 28.579178,44.024677 
	C25.773947,44.028473 23.413303,44.031525 21.052658,44.034576 
	C21.052658,44.034576 21.006828,43.987053 20.983622,43.962963 
	C21.933754,40.265701 23.312208,37.077633 28.506567,37.960350 
z"/>
<path fill="#BC4041" opacity="1.000000" stroke="none" 
	d="
M64.616364,24.757900 
	C63.192287,24.950302 61.527130,24.953159 59.441086,24.912960 
	C59.794548,24.589523 60.568897,24.309143 61.660591,24.003653 
	C62.777050,24.175146 63.576172,24.371750 64.616364,24.757900 
z"/>
<path fill="#613F6A" opacity="1.000000" stroke="none" 
	d="
M44.076286,30.245760 
	C44.380203,30.193293 44.604313,30.389982 44.687553,30.806553 
	C44.394070,31.016432 44.219845,31.031061 44.015144,31.015368 
	C43.984673,30.985044 43.923660,30.924463 43.923660,30.924463 
	C43.923660,30.924463 44.018101,30.470287 44.076286,30.245760 
z"/>
<path fill="#613F6A" opacity="1.000000" stroke="none" 
	d="
M43.957363,32.092957 
	C43.714149,31.915340 43.493843,31.712812 43.160202,31.307932 
	C43.023960,31.130495 43.472649,31.020638 43.698154,30.972549 
	C43.923660,30.924463 43.984673,30.985044 43.992805,31.277012 
	C43.986416,31.743639 43.971889,31.918299 43.957363,32.092957 
z"/>
<path fill="#613F6A" opacity="1.000000" stroke="none" 
	d="
M14.984613,56.227852 
	C17.089975,56.313793 19.030279,56.610722 21.414200,57.315006 
	C22.826992,63.288773 19.557024,64.330612 15.074253,64.077995 
	C14.821674,62.003178 14.569096,59.928360 14.169107,57.502659 
	C14.287651,56.914131 14.553604,56.676487 14.984613,56.227852 
z"/>
<path fill="#7F5882" opacity="1.000000" stroke="none" 
	d="
M15.046614,64.533966 
	C19.557024,64.330612 22.826992,63.288773 21.794964,57.297585 
	C21.827738,55.217560 21.923361,53.562309 22.454790,51.466492 
	C28.292128,51.632511 29.414368,48.490788 29.023762,44.023933 
	C29.023762,44.023933 29.013163,44.006939 29.018307,44.014908 
	C32.273060,44.004940 35.525574,43.893238 38.771507,43.993805 
	C42.472984,44.108486 44.278191,42.544228 43.901054,38.340157 
	C43.880795,37.921688 43.908516,37.908611 44.382256,37.919838 
	C49.522579,37.694427 54.189163,37.457787 58.855747,37.221153 
	C60.938953,37.131248 63.022163,37.041344 65.467575,36.941269 
	C66.995476,38.230606 68.161171,39.530113 69.990295,41.037270 
	C73.704102,44.018654 77.037674,45.121132 81.221077,43.221317 
	C83.744751,43.295502 85.967438,43.132893 88.190132,42.970284 
	C90.167084,43.326538 92.144028,43.682789 94.505280,44.073334 
	C94.332657,49.485924 96.845192,51.673241 102.505630,51.051144 
	C103.122635,52.858097 103.317162,54.641155 103.521408,57.121429 
	C103.394485,59.544334 103.257843,61.270020 103.086754,63.238258 
	C103.052299,63.480804 102.989250,63.966698 102.594666,64.013626 
	C98.920662,64.942810 94.445290,64.320030 94.880470,69.876930 
	C93.193069,69.928009 91.505661,69.979088 89.177475,70.057846 
	C88.536690,70.085533 88.096161,70.115761 87.678101,70.173843 
	C80.196800,70.130142 73.133568,70.028343 66.041977,69.524887 
	C65.966042,67.777390 65.918457,66.431564 65.898186,64.650665 
	C66.872932,58.658375 63.858517,57.451191 59.089146,57.749081 
	C57.990551,56.285313 56.982361,55.144123 56.158222,53.785484 
	C56.897236,53.052261 57.452202,52.536488 58.208923,51.692902 
	C59.016029,48.628197 60.066963,45.672459 55.715076,45.100529 
	C51.956131,44.606529 50.694332,46.529732 50.962242,50.208076 
	C50.527718,50.650696 50.262722,50.886917 49.623337,51.168922 
	C45.877388,51.727005 43.332451,52.960186 44.103401,57.317410 
	C44.088520,57.536797 44.113571,57.975868 44.071884,58.444038 
	C43.978119,64.904167 43.926048,70.896118 43.509151,76.994186 
	C40.138321,78.029938 36.306961,78.064400 36.880093,82.875946 
	C32.262726,82.893349 27.645361,82.910744 22.573273,82.900757 
	C22.714575,77.859535 18.712154,78.150520 15.336256,77.164185 
	C14.991426,73.012184 15.005200,69.001053 15.046614,64.533966 
z"/>
<path fill="#8C624C" opacity="1.000000" stroke="none" 
	d="
M87.938599,127.912018 
	C85.495193,128.003876 83.051788,128.095718 80.433548,127.698654 
	C80.707596,125.554893 81.156471,123.900055 81.652596,122.070992 
	C86.100441,122.609138 88.797913,121.288063 88.105659,116.263718 
	C88.009918,115.568886 88.641258,114.773880 89.341660,114.014404 
	C92.580582,114.211739 94.455818,113.423332 93.874023,109.767410 
	C93.892029,109.284370 93.888870,109.090858 94.066269,108.574150 
	C94.116776,106.193626 93.986732,104.136307 94.014877,101.739990 
	C94.418846,99.952354 94.664627,98.503708 95.037598,96.854103 
	C95.060806,96.069130 94.956841,95.485123 94.877090,94.495300 
	C94.892044,92.737488 94.882782,91.385498 94.872375,90.008545 
	C94.871231,89.983589 94.918770,89.968246 95.125656,89.794876 
	C95.583122,89.363121 95.833710,89.104744 96.084297,88.846367 
	C97.454468,88.913170 98.824646,88.979973 100.711899,89.330750 
	C101.757668,90.070786 102.286362,90.526840 102.815056,90.982895 
	C102.839363,98.014542 102.863670,105.046196 102.503769,112.630066 
	C100.086967,114.070984 98.054382,114.959671 96.021805,115.848358 
	C95.668488,116.992043 95.315178,118.135712 94.654068,119.786865 
	C93.897972,121.147995 93.449669,122.001648 92.596870,122.901505 
	C88.327339,122.505623 87.759109,124.888466 87.938599,127.912018 
z"/>
<path fill="#613F6A" opacity="1.000000" stroke="none" 
	d="
M66.070328,69.926552 
	C73.133568,70.028343 80.196800,70.130142 87.657364,70.525436 
	C88.054123,71.522614 88.053551,72.226280 88.052986,72.929947 
	C88.045555,73.708870 88.038116,74.487793 88.030815,75.914902 
	C88.026573,76.736000 88.022209,76.908913 88.016296,77.048241 
	C88.014763,77.014656 88.081810,77.019806 87.820976,77.024086 
	C87.386429,77.033676 87.212723,77.038994 86.568275,77.031410 
	C79.712349,77.035248 73.327156,77.051994 66.694382,77.060989 
	C66.446808,77.053230 65.952309,77.023369 65.979675,77.033119 
	C66.007042,77.042870 65.963036,77.080826 65.957382,76.634415 
	C65.991257,74.100853 66.030792,72.013702 66.070328,69.926552 
z"/>
<path fill="#392632" opacity="1.000000" stroke="none" 
	d="
M87.954216,128.332489 
	C87.759109,124.888466 88.327339,122.505623 92.918335,122.946274 
	C94.076195,122.954895 94.508095,122.964958 94.939995,122.975021 
	C94.810020,125.969559 95.636734,127.803764 99.177765,128.250610 
	C100.556580,128.424606 101.651459,130.848587 102.851746,132.643494 
	C100.143799,133.376968 97.459785,133.714630 94.341003,134.073334 
	C92.236404,134.012054 90.566574,133.929764 88.484123,133.781097 
	C88.037613,132.060806 88.003723,130.406891 87.954216,128.332489 
z"/>
<path fill="#D29686" opacity="1.000000" stroke="none" 
	d="
M94.867470,84.059525 
	C94.930496,85.090233 94.993523,86.120949 95.067612,87.876389 
	C95.025368,89.056831 94.972069,89.512543 94.918770,89.968246 
	C94.918770,89.968246 94.871231,89.983589 94.500267,90.004349 
	C92.438751,89.728958 90.748192,89.432808 88.607468,89.082642 
	C85.743813,88.971626 83.330315,88.914612 80.935013,88.450073 
	C80.954750,86.410385 80.956291,84.778221 81.389038,83.091095 
	C83.558784,82.969200 85.297340,82.902267 87.258751,82.901031 
	C87.481613,82.966736 87.942581,83.025429 88.206329,83.190216 
	C90.602539,83.589836 92.735008,83.824684 94.867470,84.059525 
z"/>
<path fill="#8D634B" opacity="1.000000" stroke="none" 
	d="
M94.899460,83.625580 
	C92.735008,83.824684 90.602539,83.589836 88.213379,82.943237 
	C87.956680,82.531487 87.919342,82.038651 87.955856,81.631165 
	C87.963951,80.134308 87.935547,79.044937 87.953995,77.722229 
	C88.000847,77.488876 88.081810,77.019806 88.081810,77.019806 
	C88.081810,77.019806 88.014763,77.014656 88.250076,77.005821 
	C88.485390,76.996986 88.950829,76.901840 88.950829,76.901840 
	C93.659546,76.416718 95.883972,78.293777 94.899460,83.625580 
z"/>
<path fill="#613F6A" opacity="1.000000" stroke="none" 
	d="
M95.172806,69.917694 
	C94.445290,64.320030 98.920662,64.942810 102.599594,64.278473 
	C103.002274,64.672775 103.005432,64.849167 103.008591,65.025551 
	C103.438652,68.976372 101.382957,70.318466 97.129379,70.032562 
	C96.493286,70.043594 96.049706,70.040802 96.049706,70.040802 
	C95.854851,70.013359 95.659996,69.985909 95.172806,69.917694 
z"/>
<path fill="#613F6A" opacity="1.000000" stroke="none" 
	d="
M103.121208,62.995708 
	C103.257843,61.270020 103.394485,59.544334 103.652954,57.482132 
	C105.205803,57.089615 106.636833,57.033611 108.488892,56.968960 
	C109.078308,56.979748 109.246689,56.999187 109.667084,57.049500 
	C109.919090,57.080372 109.972992,57.567905 109.997879,57.812431 
	C109.999840,59.430950 109.976898,60.804943 109.518448,62.590603 
	C107.095703,63.000080 105.108452,62.997894 103.121208,62.995708 
z"/>
<path fill="#8C634B" opacity="1.000000" stroke="none" 
	d="
M96.424210,115.893158 
	C98.054382,114.959671 100.086967,114.070984 102.467087,113.098183 
	C102.325409,117.074532 99.182304,115.699951 96.424210,115.893158 
z"/>
<path fill="#623F6A" opacity="1.000000" stroke="none" 
	d="
M103.086754,63.238258 
	C105.108452,62.997894 107.095703,63.000080 109.508972,63.003967 
	C107.890945,63.673943 105.846901,64.342216 103.405724,65.018021 
	C103.005432,64.849167 103.002274,64.672775 102.994186,64.231537 
	C102.989250,63.966698 103.052299,63.480804 103.086754,63.238258 
z"/>
<path fill="#8C634B" opacity="1.000000" stroke="none" 
	d="
M94.959534,122.604584 
	C94.508095,122.964958 94.076195,122.954895 93.322830,122.900070 
	C93.449669,122.001648 93.897972,121.147995 94.611221,120.155006 
	C94.910461,120.755165 94.944763,121.494652 94.959534,122.604584 
z"/>
<path fill="#8C634B" opacity="1.000000" stroke="none" 
	d="
M102.790268,90.685242 
	C102.286362,90.526840 101.757668,90.070786 101.121872,89.368362 
	C101.598343,89.543861 102.181915,89.965729 102.790268,90.685242 
z"/>
<path fill="#3D2757" opacity="1.000000" stroke="none" 
	d="
M88.217529,72.678741 
	C88.053551,72.226280 88.054123,71.522614 88.075424,70.467354 
	C88.096161,70.115761 88.536690,70.085533 88.757050,70.098259 
	C88.778969,70.883171 88.580521,71.655350 88.217529,72.678741 
z"/>
<path fill="#8C634B" opacity="1.000000" stroke="none" 
	d="
M95.125656,89.794876 
	C94.972069,89.512543 95.025368,89.056831 95.122444,88.259941 
	C95.431328,88.057076 95.657310,88.242943 95.964233,88.661362 
	C95.833710,89.104744 95.583122,89.363121 95.125656,89.794876 
z"/>
<path fill="#3D2757" opacity="1.000000" stroke="none" 
	d="
M88.812027,76.747253 
	C88.950829,76.901840 88.485390,76.996986 88.251617,77.039406 
	C88.022209,76.908913 88.026573,76.736000 88.040855,76.304306 
	C88.273056,76.211060 88.480545,76.393448 88.812027,76.747253 
z"/>
<path fill="#3D2757" opacity="1.000000" stroke="none" 
	d="
M96.155190,70.095322 
	C96.049706,70.040802 96.493286,70.043594 96.714157,70.049088 
	C96.935028,70.054588 96.606842,70.179337 96.606842,70.179337 
	C96.606842,70.179337 96.260674,70.149849 96.155190,70.095322 
z"/>
<path fill="#402A56" opacity="1.000000" stroke="none" 
	d="
M109.888519,121.161148 
	C109.942253,121.060371 109.935593,121.487076 109.924637,121.699020 
	C109.789177,121.704292 109.762878,121.487938 109.888519,121.161148 
z"/>
<path fill="#4C3265" opacity="1.000000" stroke="none" 
	d="
M103.839951,133.799896 
	C103.723381,133.814697 103.491341,133.619095 103.160912,133.197617 
	C103.264076,133.201950 103.484734,133.407867 103.839951,133.799896 
z"/>
<path fill="#F6CFB1" opacity="1.000000" stroke="none" 
	d="
M80.957840,83.146065 
	C80.956291,84.778221 80.954750,86.410385 80.503479,88.502197 
	C77.737144,89.013290 75.420540,89.064728 72.677917,89.087326 
	C66.069931,89.205833 65.986526,89.301598 66.073029,96.531052 
	C66.111343,98.525932 66.192627,100.093842 66.283829,101.853027 
	C69.178780,101.853027 71.617340,101.853027 74.510582,101.913681 
	C79.299698,101.628487 83.634140,101.282639 88.084229,101.207336 
	C90.085472,101.678261 91.971085,101.878624 93.856689,102.078987 
	C93.986732,104.136307 94.116776,106.193626 93.690681,108.604141 
	C91.730156,109.295219 90.325783,109.633102 88.952446,109.976295 
	C88.983490,109.981606 88.970245,109.920029 88.721130,110.146606 
	C88.634583,111.598732 88.797150,112.824295 88.972382,114.030075 
	C88.985039,114.010292 88.936005,114.025253 88.936005,114.025253 
	C88.641258,114.773880 88.009918,115.568886 88.105659,116.263718 
	C88.797913,121.288063 86.100441,122.609138 81.652596,122.070992 
	C81.156471,123.900055 80.707596,125.554893 80.075119,127.556198 
	C77.867081,128.270432 75.842636,128.638184 73.419189,128.982697 
	C73.020195,128.959457 72.983833,128.525406 72.950920,128.018463 
	C72.904823,127.316650 72.891640,127.121780 72.908905,126.569122 
	C72.635872,125.115334 72.332390,124.019325 72.022491,122.955811 
	C72.016083,122.988297 72.079987,122.970917 71.818130,122.708206 
	C69.683640,122.620277 67.811005,122.795059 65.934891,123.009911 
	C65.931412,123.049988 66.008759,123.072144 65.625198,122.895271 
	C62.510361,122.478775 59.766182,122.336700 57.050648,121.977898 
	C52.353462,121.357254 50.225456,123.173737 51.010212,127.989861 
	C48.888504,128.253418 46.766796,128.516983 44.282372,128.948120 
	C41.891975,128.674301 39.864300,128.232910 37.443207,127.704422 
	C37.037483,126.354042 37.025177,125.090752 36.818733,123.253922 
	C36.343884,122.455170 36.063168,122.229965 35.782455,122.004761 
	C35.782459,122.004753 35.450405,122.069191 35.283348,122.094543 
	C27.896521,120.432495 30.437538,114.604172 29.987976,109.592644 
	C31.306238,109.074478 32.881374,109.430290 33.888500,108.831207 
	C35.160088,108.074821 36.597923,106.621918 36.768387,105.313675 
	C36.894169,104.348328 34.986332,102.107735 34.189987,102.200409 
	C29.809526,102.710175 28.925529,99.947929 28.131187,96.367828 
	C28.332809,93.993477 28.673386,91.972313 29.029289,89.548111 
	C33.760677,88.861633 38.476742,88.578178 43.705505,88.392303 
	C50.697517,89.641228 51.083256,89.260475 50.931625,81.451981 
	C51.032188,77.346832 51.089733,73.695297 51.574631,70.033493 
	C54.285446,70.029388 56.568905,70.035568 58.918808,70.463463 
	C57.764240,76.945107 61.514240,77.406471 65.963036,77.080826 
	C65.963036,77.080826 66.007042,77.042870 66.019318,77.272491 
	C66.031593,77.502121 66.175957,77.965530 66.107681,78.382431 
	C65.608627,82.024437 67.096489,83.157509 70.232651,83.035156 
	C73.800842,82.895966 77.382202,83.094391 80.957840,83.146065 
z"/>
<path fill="#8B624C" opacity="1.000000" stroke="none" 
	d="
M51.286175,127.969635 
	C50.225456,123.173737 52.353462,121.357254 57.050648,121.977898 
	C59.766182,122.336700 62.510361,122.478775 65.604813,123.294632 
	C66.039047,124.936996 66.110115,126.003113 66.153030,127.297691 
	C66.124886,127.526146 66.028473,127.976288 66.028473,127.976288 
	C66.028473,127.976288 66.017555,127.980331 66.029449,127.966797 
	C65.570953,127.986153 65.100563,128.019043 63.930492,127.800873 
	C59.523319,127.653343 55.815830,127.756866 52.108337,127.860382 
	C51.926273,127.890060 51.744205,127.919739 51.286175,127.969635 
z"/>
<path fill="#755136" opacity="1.000000" stroke="none" 
	d="
M52.558235,127.908516 
	C55.815830,127.756866 59.523319,127.653343 63.580597,127.736969 
	C60.289635,127.934959 56.648884,127.945801 52.558235,127.908516 
z"/>
<path fill="#D09585" opacity="1.000000" stroke="none" 
	d="
M66.181183,127.069237 
	C66.110115,126.003113 66.039047,124.936996 65.988373,123.471512 
	C66.008759,123.072144 65.931412,123.049988 66.372787,123.005806 
	C68.569443,122.964722 70.324715,122.967819 72.079987,122.970917 
	C72.079987,122.970917 72.016083,122.988297 72.015816,123.363716 
	C72.014488,124.823158 72.013420,125.907181 71.841751,127.128853 
	C71.449776,127.458069 71.244377,127.665451 71.054947,127.888641 
	C69.964806,127.927635 68.874657,127.966629 67.261765,127.810654 
	C66.578186,127.407898 66.392242,127.225746 66.181183,127.069237 
z"/>
<path fill="#DC9E8E" opacity="1.000000" stroke="none" 
	d="
M71.363647,127.923035 
	C71.244377,127.665451 71.449776,127.458069 72.058762,127.120422 
	C72.446381,126.974350 72.878456,126.926918 72.878456,126.926918 
	C72.891640,127.121780 72.904823,127.316650 72.911758,127.804214 
	C72.494461,128.050415 72.083405,128.003922 71.363647,127.923035 
z"/>
<path fill="#DC9E8E" opacity="1.000000" stroke="none" 
	d="
M66.153030,127.297691 
	C66.392242,127.225746 66.578186,127.407898 66.853516,127.774368 
	C66.968025,127.933037 66.499840,127.993530 66.264160,127.984909 
	C66.028473,127.976288 66.124886,127.526146 66.153030,127.297691 
z"/>
<path fill="#F7E7EF" opacity="1.000000" stroke="none" 
	d="
M72.894760,26.519337 
	C75.225983,26.042931 77.602226,26.018829 80.420319,25.990396 
	C80.930748,29.336176 80.999329,32.686287 80.657791,36.499302 
	C77.877800,36.978722 75.507935,36.995232 73.138062,37.011742 
	C73.071960,33.665043 73.005867,30.318340 72.894760,26.519337 
z"/>
<path fill="#998245" opacity="1.000000" stroke="none" 
	d="
M88.141731,42.547863 
	C85.967438,43.132893 83.744751,43.295502 81.240791,42.818771 
	C80.923309,41.110134 80.887100,40.040836 80.961548,38.721085 
	C81.368095,38.265953 81.663979,38.061279 81.959862,37.856602 
	C83.642471,37.885406 85.325081,37.914215 87.426620,37.909409 
	C87.928146,39.292343 88.010742,40.708889 88.141731,42.547863 
z"/>
<path fill="#FDEFFC" opacity="1.000000" stroke="none" 
	d="
M81.899994,37.647255 
	C81.663979,38.061279 81.368095,38.265953 80.553932,38.729103 
	C77.694290,38.593418 75.352928,38.199257 73.011566,37.805099 
	C73.011566,37.805099 73.024963,37.400475 73.081512,37.206108 
	C75.507935,36.995232 77.877800,36.978722 80.695145,36.952934 
	C81.440269,37.016472 81.672783,37.181221 81.899994,37.647255 
z"/>
<path fill="#D4B95A" opacity="1.000000" stroke="none" 
	d="
M72.781891,38.015434 
	C75.352928,38.199257 77.694290,38.593418 80.443268,38.979561 
	C80.887100,40.040836 80.923309,41.110134 80.939812,42.581978 
	C77.037674,45.121132 73.704102,44.018654 70.333038,41.064247 
	C70.858971,39.997643 71.705589,39.111706 72.781891,38.015434 
z"/>
<path fill="#D29686" opacity="1.000000" stroke="none" 
	d="
M50.888611,81.905594 
	C51.083256,89.260475 50.697517,89.641228 44.088425,88.215607 
	C43.979824,86.595390 44.000992,85.249428 44.035606,83.488358 
	C44.049053,83.073250 44.058285,83.136093 44.455093,83.082718 
	C46.864136,82.654755 48.876373,82.280174 50.888611,81.905594 
z"/>
<path fill="#613F6A" opacity="1.000000" stroke="none" 
	d="
M37.172005,82.916611 
	C36.306961,78.064400 40.138321,78.029938 43.551353,77.285355 
	C43.986366,77.664261 44.014359,77.858116 44.043964,78.271553 
	C44.045582,78.491127 44.055943,78.930176 44.042061,79.349968 
	C44.038219,80.891869 44.048252,82.013985 44.058285,83.136093 
	C44.058285,83.136093 44.049053,83.073250 44.077972,83.087128 
	C42.670547,83.075745 41.234196,83.050484 39.145508,83.033783 
	C38.493172,83.042351 38.047611,83.039513 38.047611,83.039513 
	C37.853046,83.012093 37.658482,82.984680 37.172005,82.916611 
z"/>
<path fill="#3E2855" opacity="1.000000" stroke="none" 
	d="
M20.169819,83.105064 
	C20.062836,83.053268 20.508339,83.042213 20.730499,83.040749 
	C20.952658,83.039284 20.626005,83.174515 20.626005,83.174515 
	C20.626005,83.174515 20.276802,83.156860 20.169819,83.105064 
z"/>
<path fill="#3E2855" opacity="1.000000" stroke="none" 
	d="
M38.153572,83.094315 
	C38.047611,83.039513 38.493172,83.042351 38.715054,83.047890 
	C38.936935,83.053429 38.607269,83.178787 38.607269,83.178787 
	C38.607269,83.178787 38.259529,83.149109 38.153572,83.094315 
z"/>
<path fill="#FFDCBC" opacity="1.000000" stroke="none" 
	d="
M35.955616,122.215385 
	C36.063168,122.229965 36.343884,122.455170 36.814121,122.872337 
	C36.712025,122.851532 36.420399,122.638771 35.955616,122.215385 
z"/>
<path fill="#613F6A" opacity="1.000000" stroke="none" 
	d="
M58.894684,36.781006 
	C54.189163,37.457787 49.522579,37.694427 44.384644,37.905975 
	C43.933594,36.226345 43.953896,34.571796 43.965778,32.505104 
	C43.971889,31.918299 43.986416,31.743639 44.023277,31.307335 
	C44.219845,31.031061 44.394070,31.016432 44.830513,30.979578 
	C49.089851,30.972437 53.086971,30.987520 57.699375,31.181160 
	C58.524891,31.583975 58.748627,31.793829 58.985878,31.989277 
	C58.968460,33.439804 58.951038,34.890331 58.894684,36.781006 
z"/>
<path fill="#613F6A" opacity="1.000000" stroke="none" 
	d="
M58.843563,31.807348 
	C58.748627,31.793829 58.524891,31.583975 58.162880,31.186867 
	C58.265900,31.189882 58.495949,31.393684 58.843563,31.807348 
z"/>
<path fill="#613F6A" opacity="1.000000" stroke="none" 
	d="
M28.579178,44.024677 
	C29.414368,48.490788 28.292128,51.632511 22.480289,51.050991 
	C21.818254,48.972069 21.566523,46.868084 21.183723,44.399338 
	C23.413303,44.031525 25.773947,44.028473 28.579178,44.024677 
z"/>
<path fill="#482F5B" opacity="1.000000" stroke="none" 
	d="
M44.042347,78.051979 
	C44.014359,77.858116 43.986366,77.664261 43.916176,77.179245 
	C43.926048,70.896118 43.978119,64.904167 44.373535,58.419762 
	C45.453468,57.636520 46.190067,57.345737 47.313599,57.037766 
	C48.475266,56.988155 49.249996,56.955723 50.026150,56.964256 
	C50.027573,57.005222 50.024933,57.087162 50.148964,57.238903 
	C50.444237,57.589394 50.625351,57.778706 50.879128,58.419006 
	C51.010372,62.600883 51.078827,66.322327 51.147278,70.043770 
	C51.089733,73.695297 51.032188,77.346832 50.931625,81.451981 
	C48.876373,82.280174 46.864136,82.654755 44.455093,83.082718 
	C44.048252,82.013985 44.038219,80.891869 44.092949,79.245132 
	C44.219837,78.482979 44.181381,78.260139 44.042347,78.051979 
z"/>
<path fill="#D39786" opacity="1.000000" stroke="none" 
	d="
M51.574635,70.033493 
	C51.078827,66.322327 51.010372,62.600883 50.943047,58.185253 
	C50.944172,57.491066 51.012028,57.011154 51.319908,56.855675 
	C53.076580,55.801109 54.525375,54.902020 55.974174,54.002930 
	C56.982361,55.144123 57.990551,56.285313 59.034374,58.142231 
	C59.342216,60.886585 59.614422,62.915218 59.589584,65.189438 
	C59.145817,66.970604 58.999088,68.506172 58.852364,70.041740 
	C56.568905,70.035568 54.285446,70.029388 51.574635,70.033493 
z"/>
<path fill="#482F5B" opacity="1.000000" stroke="none" 
	d="
M58.918808,70.463463 
	C58.999088,68.506172 59.145817,66.970604 60.019211,65.203064 
	C62.454216,65.009300 64.162552,65.047516 65.870880,65.085724 
	C65.918457,66.431564 65.966042,67.777390 66.041977,69.524887 
	C66.030792,72.013702 65.991257,74.100853 65.957382,76.634415 
	C61.514240,77.406471 57.764240,76.945107 58.918808,70.463463 
z"/>
<path fill="#613F6A" opacity="1.000000" stroke="none" 
	d="
M65.898193,64.650665 
	C64.162552,65.047516 62.454216,65.009300 60.316254,64.957466 
	C59.614422,62.915218 59.342216,60.886585 59.124783,58.464806 
	C63.858517,57.451191 66.872932,58.658375 65.898193,64.650665 
z"/>
<path fill="#613F6A" opacity="1.000000" stroke="none" 
	d="
M51.131775,50.001675 
	C50.694332,46.529732 51.956131,44.606529 55.715076,45.100529 
	C60.066963,45.672459 59.016029,48.628197 58.018639,51.381779 
	C55.461662,50.932873 53.296719,50.467274 51.131775,50.001675 
z"/>
<path fill="#623F6A" opacity="1.000000" stroke="none" 
	d="
M50.962242,50.208076 
	C53.296719,50.467274 55.461662,50.932873 57.816887,51.709595 
	C57.452202,52.536488 56.897236,53.052261 56.158222,53.785484 
	C54.525375,54.902020 53.076580,55.801109 51.073143,56.874462 
	C50.518505,57.048725 50.024933,57.087162 50.024933,57.087162 
	C50.024933,57.087162 50.027573,57.005222 50.019508,56.550610 
	C50.006870,54.438377 50.002296,52.780758 49.997723,51.123138 
	C50.262722,50.886917 50.527718,50.650696 50.962242,50.208076 
z"/>
<path fill="#613F6A" opacity="1.000000" stroke="none" 
	d="
M49.623337,51.168919 
	C50.002296,52.780758 50.006870,54.438377 50.018082,56.509644 
	C49.249996,56.955723 48.475266,56.988155 46.963596,57.031387 
	C45.523865,57.060802 44.821072,57.079411 44.118279,57.098022 
	C43.332451,52.960186 45.877388,51.727005 49.623337,51.168919 
z"/>
<path fill="#3D2855" opacity="1.000000" stroke="none" 
	d="
M44.103401,57.317410 
	C44.821072,57.079411 45.523865,57.060802 46.576660,57.048569 
	C46.190067,57.345737 45.453468,57.636520 44.415222,57.951588 
	C44.113571,57.975868 44.088520,57.536797 44.103401,57.317410 
z"/>
<path fill="#D19686" opacity="1.000000" stroke="none" 
	d="
M94.014877,101.739990 
	C91.971085,101.878624 90.085472,101.678261 88.095078,100.821625 
	C87.943573,99.140167 87.896858,98.114975 87.999542,96.835587 
	C88.442497,96.323708 88.736061,96.066032 89.429848,95.866005 
	C91.177246,95.947182 92.524429,95.970703 94.004974,96.208130 
	C94.395699,96.633041 94.653053,96.844048 94.910408,97.055061 
	C94.664627,98.503708 94.418846,99.952354 94.014877,101.739990 
z"/>
<path fill="#603E69" opacity="1.000000" stroke="none" 
	d="
M93.871613,95.994232 
	C92.524429,95.970703 91.177246,95.947182 89.300430,95.636093 
	C88.493027,94.899940 88.215256,94.451355 87.968262,93.641022 
	C88.351891,91.898392 88.704765,90.517525 89.057640,89.136650 
	C90.748192,89.432808 92.438751,89.728958 94.501411,90.029312 
	C94.882782,91.385498 94.892044,92.737488 94.690842,94.655876 
	C94.245361,95.454285 94.042442,95.711609 93.871613,95.994232 
z"/>
<path fill="#D09585" opacity="1.000000" stroke="none" 
	d="
M93.852859,110.056938 
	C94.455818,113.423332 92.580582,114.211739 89.341667,114.014404 
	C88.936005,114.025253 88.985039,114.010292 88.979477,113.617737 
	C88.972687,112.123466 88.971466,111.021751 88.970245,109.920029 
	C88.970245,109.920029 88.983490,109.981606 89.365883,109.982903 
	C91.116470,110.008446 92.484665,110.032692 93.852859,110.056938 
z"/>
<path fill="#C37F75" opacity="1.000000" stroke="none" 
	d="
M93.874023,109.767410 
	C92.484665,110.032692 91.116470,110.008446 89.334839,109.977592 
	C90.325783,109.633102 91.730156,109.295219 93.510132,108.927338 
	C93.888870,109.090858 93.892029,109.284370 93.874023,109.767410 
z"/>
<path fill="#8C634B" opacity="1.000000" stroke="none" 
	d="
M94.004974,96.208130 
	C94.042442,95.711609 94.245361,95.454285 94.666626,95.061691 
	C94.956841,95.485123 95.060806,96.069130 95.037598,96.854103 
	C94.653053,96.844048 94.395699,96.633041 94.004974,96.208130 
z"/>
<path fill="#482F5B" opacity="1.000000" stroke="none" 
	d="
M81.389038,83.091095 
	C77.382202,83.094391 73.800842,82.895966 70.232651,83.035156 
	C67.096489,83.157509 65.608627,82.024437 66.244766,78.240479 
	C66.629059,77.489357 66.792999,77.285057 66.941963,77.068741 
	C73.327156,77.051994 79.712349,77.035248 86.700638,77.194046 
	C87.490074,77.580147 87.691208,77.775475 87.907135,77.955574 
	C87.935547,79.044937 87.963951,80.134308 87.799644,81.753418 
	C87.404274,82.454506 87.213928,82.638557 87.035889,82.835335 
	C85.297340,82.902267 83.558784,82.969200 81.389038,83.091095 
z"/>
<path fill="#3E2958" opacity="1.000000" stroke="none" 
	d="
M66.694382,77.060989 
	C66.792999,77.285057 66.629059,77.489357 66.313049,77.823578 
	C66.175957,77.965530 66.031593,77.502121 65.991951,77.262741 
	C65.952309,77.023369 66.446808,77.053230 66.694382,77.060989 
z"/>
<path fill="#3E2958" opacity="1.000000" stroke="none" 
	d="
M87.953995,77.722229 
	C87.691208,77.775475 87.490074,77.580147 87.171371,77.206955 
	C87.212723,77.038994 87.386429,77.033676 87.820976,77.024086 
	C88.081810,77.019806 88.000847,77.488876 87.953995,77.722229 
z"/>
<path fill="#8B624C" opacity="1.000000" stroke="none" 
	d="
M88.607468,89.082642 
	C88.704765,90.517525 88.351891,91.898392 87.510223,93.640221 
	C84.026283,94.009117 80.987694,93.720757 78.054482,94.150955 
	C76.604118,94.363678 75.348000,95.900864 73.762764,97.083771 
	C73.699661,98.836845 73.877785,100.344933 74.055908,101.853027 
	C71.617340,101.853027 69.178780,101.853027 66.283829,101.853027 
	C66.192627,100.093842 66.111343,98.525932 66.484955,96.501465 
	C72.507393,96.860489 73.424995,93.539307 73.103928,89.116165 
	C75.420540,89.064728 77.737144,89.013290 80.485291,88.909729 
	C83.330315,88.914612 85.743813,88.971626 88.607468,89.082642 
z"/>
<path fill="#3E2958" opacity="1.000000" stroke="none" 
	d="
M87.258751,82.901031 
	C87.213928,82.638557 87.404274,82.454506 87.763138,82.160912 
	C87.919342,82.038651 87.956680,82.531487 87.949631,82.778458 
	C87.942581,83.025429 87.481613,82.966736 87.258751,82.901031 
z"/>
<path fill="#392632" opacity="1.000000" stroke="none" 
	d="
M74.510582,101.913681 
	C73.877785,100.344933 73.699661,98.836845 74.214172,97.132599 
	C79.221260,96.987556 83.535706,97.038666 87.850159,97.089767 
	C87.896858,98.114975 87.943573,99.140167 87.979431,100.551079 
	C83.634140,101.282639 79.299698,101.628487 74.510582,101.913681 
z"/>
<path fill="#D09585" opacity="1.000000" stroke="none" 
	d="
M72.677917,89.087326 
	C73.424995,93.539307 72.507393,96.860489 66.527924,96.074486 
	C65.986526,89.301598 66.069931,89.205833 72.677917,89.087326 
z"/>
<path fill="#C37F75" opacity="1.000000" stroke="none" 
	d="
M71.818130,122.708206 
	C70.324715,122.967819 68.569443,122.964722 66.376266,122.965729 
	C67.811005,122.795059 69.683640,122.620277 71.818130,122.708206 
z"/>
<path fill="#C37F75" opacity="1.000000" stroke="none" 
	d="
M88.721130,110.146606 
	C88.971466,111.021751 88.972687,112.123466 88.966812,113.637520 
	C88.797150,112.824295 88.634583,111.598732 88.721130,110.146606 
z"/>
<path fill="#C37F75" opacity="1.000000" stroke="none" 
	d="
M72.908905,126.569122 
	C72.878456,126.926918 72.446381,126.974350 72.229370,126.982773 
	C72.013420,125.907181 72.014488,124.823158 72.022232,123.331230 
	C72.332390,124.019325 72.635872,125.115334 72.908905,126.569122 
z"/>
<path fill="#3D2855" opacity="1.000000" stroke="none" 
	d="
M44.043964,78.271553 
	C44.181381,78.260139 44.219837,78.482979 44.106831,78.825340 
	C44.055943,78.930176 44.045582,78.491127 44.043964,78.271553 
z"/>
<path fill="#3D2855" opacity="1.000000" stroke="none" 
	d="
M50.148964,57.238903 
	C50.024933,57.087162 50.518505,57.048725 50.765266,57.029938 
	C51.012028,57.011154 50.944172,57.491066 50.880257,57.724823 
	C50.625351,57.778706 50.444237,57.589394 50.148964,57.238903 
z"/>
<path fill="#8C634C" opacity="1.000000" stroke="none" 
	d="
M87.999542,96.835579 
	C83.535706,97.038666 79.221260,96.987556 74.455399,96.887619 
	C75.348000,95.900864 76.604118,94.363678 78.054482,94.150955 
	C80.987694,93.720757 84.026283,94.009117 87.479462,94.001968 
	C88.215256,94.451355 88.493027,94.899940 88.900215,95.578445 
	C88.736061,96.066032 88.442497,96.323708 87.999542,96.835579 
z"/>
</svg>